<svg width="731" height="125" viewBox="0 0 731 125" fill="none" xmlns="http://www.w3.org/2000/svg">
<path d="M730.571 125C703.88 125 703.188 120.009 698.001 119.967C697.892 118.598 697.436 117.277 696.673 116.127C695.91 114.977 694.866 114.033 693.636 113.384C691.68 112.352 689.388 112.122 687.26 112.745C685.133 113.368 683.341 114.794 682.277 116.711C681.301 102.944 642.243 94.9962 635.546 107.889C635.209 105.355 634.263 102.936 632.788 100.833C631.312 98.7303 629.349 97.0031 627.061 95.7945C623.209 93.7558 618.694 93.2989 614.502 94.5238C610.309 95.7487 606.778 98.5558 604.681 102.333C604.565 102.544 604.513 102.766 604.404 102.982C601.961 102.426 599.479 102.052 596.979 101.864C597.388 99.6206 597.065 97.3075 596.057 95.2555C595.049 93.2034 593.407 91.5177 591.367 90.4393C588.901 89.1446 586.03 88.8126 583.326 89.5096C580.622 90.2066 578.285 91.8812 576.78 94.1993C570.772 89.3639 563.298 86.6351 555.539 86.4435C552.568 78.6039 546.793 72.1005 539.296 68.1537C532.779 64.7189 525.332 63.3792 518.001 64.3228C510.67 65.2665 503.824 68.446 498.423 73.4149C498.421 70.0822 497.502 66.8123 495.763 63.9522C494.025 61.0921 491.532 58.7485 488.55 57.17C485.649 55.6481 482.397 54.8927 479.111 54.9776C475.825 55.0625 472.617 55.9848 469.802 57.6544C469.072 53.1288 467.287 48.831 464.587 45.0976C461.888 41.3642 458.346 38.2966 454.241 36.1353C448.861 33.3003 442.742 32.1158 436.672 32.7344C430.603 33.353 424.86 35.7464 420.185 39.6061C417.51 34.3011 413.22 29.9498 407.913 27.1589C401.102 23.5596 393.121 22.7559 385.709 24.9231C378.298 27.0902 372.058 32.0525 368.349 38.7283C368.032 39.3068 367.762 39.9011 367.491 40.4912C362.334 35.6242 355.947 32.2057 348.993 30.5913C342.039 28.9768 334.772 29.2254 327.949 31.3112C321.126 33.3969 314.995 37.2436 310.194 42.4512C305.393 47.6588 302.098 54.0371 300.65 60.9228C298.076 60.8893 295.508 61.1809 293.009 61.7905C287.931 59.9354 282.469 59.3345 277.1 60.0404C271.732 60.7464 266.621 62.7378 262.217 65.8398C261.689 61.2885 259.844 56.9821 256.901 53.4326C253.958 49.883 250.042 47.2396 245.618 45.8166C241.193 44.3935 236.446 44.2506 231.942 45.405C227.437 46.5593 223.364 48.9622 220.206 52.3281C219.447 44.6297 216.581 37.278 211.913 31.0551C207.245 24.8322 200.951 19.971 193.699 16.9888C186.447 14.0065 178.51 13.0148 170.731 14.1191C162.952 15.2234 155.623 18.3824 149.523 23.26C143.104 14.4751 134.231 7.71281 123.982 3.79406C113.734 -0.124679 102.55 -1.03141 91.7874 1.1839C81.0252 3.39921 71.1478 8.64136 63.3542 16.274C55.5607 23.9066 50.186 33.6014 47.8826 44.1818C39.1857 41.7059 29.9252 41.9243 21.3588 44.8073C12.7923 47.6903 5.33517 53.0982 2.54532e-05 60.2966V125H730.571Z" fill="#F7F8FA"/>
</svg>
