<svg fill="none" height="203" viewBox="0 0 264 203" width="264" xmlns="http://www.w3.org/2000/svg" xmlns:xlink="http://www.w3.org/1999/xlink"><linearGradient id="a"><stop offset="0" stop-color="#3c2d7a"/><stop offset=".1533" stop-color="#342769"/><stop offset=".5125" stop-color="#221a46"/><stop offset=".8076" stop-color="#181331"/><stop offset="1" stop-color="#141029"/></linearGradient><linearGradient id="b" gradientUnits="userSpaceOnUse" x1="-115.028" x2="-212.44" xlink:href="#a" y1="-128.134" y2="81.9434"/><linearGradient id="c" gradientUnits="userSpaceOnUse" x1="-229.516" x2="-284.783" xlink:href="#a" y1="-40.5298" y2="105.08"/><linearGradient id="d" gradientUnits="userSpaceOnUse" x1="-186.482" x2="-234.328" y1="-17.3537" y2="202.754"><stop offset="0" stop-color="#e221ab"/><stop offset=".0498992" stop-color="#ca21a3"/><stop offset=".1584" stop-color="#9b2193"/><stop offset=".2621" stop-color="#762186"/><stop offset=".358" stop-color="#5c217d"/><stop offset=".4436" stop-color="#4c2178"/><stop offset=".5101" stop-color="#462176"/><stop offset="1" stop-color="#462176" stop-opacity="0"/></linearGradient><linearGradient id="e" gradientUnits="userSpaceOnUse" x1="-211.024" x2="-289.571" y1="-88.9156" y2="397.566"><stop offset="0" stop-color="#e221ab"/><stop offset=".5101" stop-color="#462176"/><stop offset="1" stop-color="#462176" stop-opacity="0"/></linearGradient><linearGradient id="f" gradientUnits="userSpaceOnUse" x1="-236.361" x2="-470.308" y1="24.1588" y2="387.383"><stop offset="0" stop-color="#e221ab"/><stop offset=".2929" stop-color="#e221ab"/><stop offset=".3798" stop-color="#db21a9" stop-opacity=".8771"/><stop offset=".5056" stop-color="#c821a2" stop-opacity=".6991"/><stop offset=".6552" stop-color="#a82197" stop-opacity=".4876"/><stop offset=".823" stop-color="#7c2188" stop-opacity=".2503"/><stop offset="1" stop-color="#462176" stop-opacity="0"/></linearGradient><mask id="g" height="203" maskUnits="userSpaceOnUse" width="264" x="0" y="0"><path d="m264 203h264v203h-264z" fill="#c4c4c4" transform="matrix(-1 0 0 -1 528 406)"/></mask><g mask="url(#g)"><path d="m-429.356-168.342c43.833 46.555 69.274 110.9346 124.755 143.8584 39.746 23.591927 88.688 26.84235 135.178 24.954986 46.49-1.992196 96.0443-4.718366 142.5339-2.516466 249.6131 11.7435 310.9181 259.82508 310.9181 259.82508h-917.633v-500.357c74.894-6.397 153.365 20.236 204.248 74.235z" fill="url(#b)"/><path d="m-633.603-181.972c32.594-6.187 68.355-2.097 99.416 9.332 47.511 17.51 86.134 49.595 121.384 82.8333 35.25 33.2384 68.764 68.5738 110.553 95.20638 50.066 31.87532 110.962 50.11962 172.574 51.48272 38.8261.9437 77.9591-4.6135 116.2747.734 60.4876 8.4931 114.7423 45.8206 138.9583 95.6256v83.463h-759.262v-418.677z" fill="url(#c)"/><path d="m-571.993-131.119c20.026 29.254 35.25 61.8635 66.414 83.9874 38.928 27.6812 94.614 33.5529 146.723 36.1742 52.109 2.62135 106.875 3.77472 151.73 25.1647 26.565 12.6872 49.657 32.6092 73.668 49.4906 68.5592 48.1271 147.1318 27.2617 223.5587 32.3995 113.7203 7.6546 151.0143 149.4156 151.0143 149.4156h-874.719v-430.946c26.361 11.325 46.796 32.715 61.611 54.314z" fill="url(#d)"/><path d="m-613.475-86.5567c2.145-1.9922 3.78-15.3083 8.582-14.1553 23.807 5.4525 44.855 27.9959 58.24 53.9994 9.298 18.1396 29.12 76.2281 92.366 72.1388 25.544-1.5728 134.462-37.1179 159.087-41.4169 74.689-13.1066 136.812 4.299 186.775 53.5798 37.6008 37.1179 73.362 74.8649 110.65583 111.8779 37.08947 36.803 84.39647 68.888 137.11917 68.993v35.965h-749.351c-.307-19.398-.613-38.691-.818-58.089-.613-41.731-1.226-83.358-1.839-125.0891-.613-39.5295-1.124-79.05903-1.737-118.5886-.204-11.3241-.306-22.6482-.511-33.8675-.102-2.831.409-4.4038 1.431-5.3475z" fill="url(#e)" opacity=".78"/><path d="m-601.206-.749653c20.263 24.976253 57.815 39.084253 92.834 41.069753 34.688 2.0901 69.157-4.2846 103.625-7.9422 74.002-7.9423 153.511-2.7171 215.95 32.187 66.514 37.0991 108.8011 104.8171 183.90465 126.9711 5.72637 1.672 12.22358 2.926 17.94995 5.121 2.5328.941 4.9555 2.195 7.0479 3.658-2.0924 1.881-2.0924.94-4.4049 1.672-11.56289 3.657-33.257 0-45.4806 0h-571.536v-202.736653z" fill="url(#f)" opacity=".92"/></g></svg>