<svg width="731" height="125" viewBox="0 0 731 125" fill="none" xmlns="http://www.w3.org/2000/svg">
<path d="M0 125C26.6907 125 27.3829 120.009 32.5703 119.967C32.6786 118.598 33.135 117.277 33.8977 116.127C34.6604 114.977 35.7047 114.033 36.9347 113.384C38.8911 112.352 41.1827 112.122 43.3104 112.745C45.438 113.368 47.2293 114.794 48.294 116.711C49.2698 102.944 88.3279 94.9962 95.0245 107.889C95.3621 105.355 96.3076 102.936 97.7831 100.833C99.2585 98.7303 101.221 97.0031 103.509 95.7945C107.361 93.7558 111.876 93.2989 116.069 94.5238C120.262 95.7487 123.792 98.5558 125.89 102.333C126.006 102.544 126.058 102.766 126.166 102.982C128.609 102.426 131.092 102.052 133.592 101.864C133.183 99.6206 133.506 97.3075 134.514 95.2555C135.522 93.2034 137.164 91.5177 139.204 90.4393C141.67 89.1446 144.541 88.8126 147.245 89.5096C149.949 90.2066 152.286 91.8812 153.79 94.1993C159.799 89.3639 167.273 86.6351 175.032 86.4435C178.003 78.6039 183.778 72.1005 191.275 68.1537C197.792 64.7189 205.239 63.3792 212.57 64.3228C219.901 65.2665 226.747 68.446 232.148 73.4149C232.15 70.0822 233.069 66.8123 234.808 63.9522C236.546 61.0921 239.039 58.7485 242.021 57.17C244.922 55.6481 248.174 54.8927 251.46 54.9776C254.746 55.0625 257.954 55.9848 260.769 57.6544C261.499 53.1288 263.284 48.831 265.983 45.0976C268.683 41.3642 272.224 38.2966 276.33 36.1353C281.71 33.3003 287.829 32.1158 293.898 32.7344C299.968 33.353 305.711 35.7464 310.386 39.6061C313.06 34.3011 317.35 29.9498 322.658 27.1589C329.469 23.5596 337.45 22.7559 344.861 24.9231C352.272 27.0902 358.512 32.0525 362.221 38.7283C362.539 39.3068 362.809 39.9011 363.08 40.4912C368.236 35.6242 374.624 32.2057 381.578 30.5913C388.532 28.9768 395.798 29.2254 402.622 31.3112C409.445 33.3969 415.576 37.2436 420.377 42.4512C425.178 47.6588 428.473 54.0371 429.92 60.9228C432.495 60.8893 435.063 61.1809 437.562 61.7905C442.639 59.9354 448.102 59.3345 453.47 60.0405C458.839 60.7464 463.95 62.7378 468.354 65.8398C468.882 61.2885 470.727 56.9821 473.67 53.4326C476.612 49.883 480.529 47.2396 484.953 45.8166C489.378 44.3935 494.125 44.2506 498.629 45.405C503.134 46.5593 507.207 48.9622 510.364 52.3281C511.124 44.6297 513.99 37.278 518.658 31.0551C523.326 24.8322 529.62 19.971 536.872 16.9888C544.124 14.0065 552.061 13.0148 559.84 14.1191C567.619 15.2234 574.948 18.3824 581.048 23.26C587.467 14.4751 596.34 7.71281 606.588 3.79406C616.837 -0.124679 628.021 -1.03141 638.783 1.1839C649.546 3.39921 659.423 8.64136 667.217 16.274C675.01 23.9066 680.385 33.6014 682.688 44.1818C691.385 41.7059 700.646 41.9243 709.212 44.8073C717.778 47.6903 725.236 53.0982 730.571 60.2966V125H0Z" fill="#F7F8FA"/>
</svg>
