<svg width="642" height="194" viewBox="0 0 642 194" fill="none" xmlns="http://www.w3.org/2000/svg">
<path opacity="0.4" d="M0 193.856C0.648644 192.784 1.5655 191.896 2.66154 191.28C3.75757 190.663 4.99555 190.338 6.25525 190.337C7.34185 190.342 8.4138 190.586 9.39392 191.052C10.5937 188.95 12.3339 187.202 14.4367 185.987C16.5395 184.772 18.9295 184.134 21.3624 184.136C24.6901 184.135 27.9058 185.33 30.4146 187.501C33.8023 184.963 37.9306 183.591 42.174 183.592C44.8982 183.593 47.5922 184.159 50.0832 185.254C50.3363 183.386 50.9761 181.59 51.9622 179.98C52.9484 178.37 54.2595 176.98 55.8131 175.898C57.3667 174.815 59.1291 174.064 60.9893 173.691C62.8496 173.319 64.7674 173.332 66.622 173.732C66.622 173.627 66.6073 173.523 66.6073 173.417C66.6125 171.63 66.9723 169.861 67.666 168.211C68.3597 166.561 69.3738 165.063 70.6504 163.803C71.9271 162.543 73.4412 161.544 75.1063 160.865C76.7714 160.186 78.5549 159.839 80.355 159.845C81.3557 159.847 82.3532 159.957 83.3302 160.172C84.7293 155.154 87.327 150.544 90.903 146.736C94.4789 142.927 98.9274 140.032 103.871 138.295C108.814 136.559 114.106 136.033 119.298 136.762C124.49 137.491 129.428 139.453 133.693 142.482C134.213 137.965 136.027 133.692 138.921 130.169C141.815 126.647 145.666 124.024 150.017 122.612C154.368 121.2 159.036 121.058 163.466 122.204C167.895 123.349 171.901 125.734 175.006 129.074C175.754 121.434 178.573 114.138 183.165 107.962C187.756 101.787 193.948 96.9632 201.08 94.0045C208.212 91.0458 216.019 90.0629 223.669 91.1603C231.319 92.2576 238.527 95.3941 244.525 100.236C249.853 92.882 256.912 86.9352 265.087 82.9151C273.263 78.8949 282.305 76.9237 291.424 77.1736C300.543 77.4235 309.461 79.8869 317.401 84.3487C325.34 88.8105 332.059 95.1349 336.97 102.77C347.359 103.074 356.265 106.078 359.666 112.674C360.177 108.813 361.606 105.128 363.834 101.923C366.062 98.7185 369.025 96.0862 372.48 94.2433C378.298 91.1404 385.115 90.4477 391.445 92.3161C397.775 94.1846 403.105 98.4627 406.272 104.218C406.448 104.538 406.526 104.876 406.688 105.205C410.379 104.357 414.129 103.788 417.906 103.501C417.29 100.083 417.779 96.5589 419.301 93.4328C420.823 90.3066 423.301 87.7382 426.381 86.0944C430.105 84.1205 434.441 83.6134 438.525 84.6743C442.609 85.7352 446.141 88.286 448.415 91.8181C457.491 84.4473 468.779 80.2874 480.5 79.9947C484.987 68.0447 493.711 58.1315 505.034 52.1147C514.88 46.88 526.129 44.8386 537.203 46.277C548.276 47.7155 558.618 52.5615 566.777 60.135C566.779 55.0546 568.167 50.0697 570.793 45.7097C573.419 41.3497 577.185 37.7774 581.691 35.3722C586.073 33.0513 590.986 31.8995 595.95 32.0292C600.914 32.1589 605.759 33.5658 610.011 36.1123C611.112 29.2133 613.807 22.6612 617.884 16.9699C621.962 11.2785 627.312 6.60258 633.514 3.30872C636.066 1.95911 638.74 0.851316 641.501 0V193.856C640.94 194.18 0 193.856 0 193.856Z" fill="#F7F8FA"/>
</svg>
