<svg fill="none" height="17" viewBox="0 0 17 17" width="17" xmlns="http://www.w3.org/2000/svg"><path d="m15.2741 17c-.0856 0-.1713 0-.2548-.01-.2778-.0221-.5373-.147-.7282-.3502-.4683-.486-.9537-.9692-1.382-1.3966l-.1492-.1487c-.1714-.1708-.3455-.3452-.5176-.5181-.0391-.0457-.0737-.095-.1035-.1473-1.623 1.0624-3.58143 1.4854-5.49752 1.1874-1.9161-.298-3.6541-1.2958-4.87871-2.8011-1.224611-1.5052-1.8490694-3.41113-1.75291033-5.35012.09615933-1.93898.90612233-3.77362 2.27364033-5.14999 1.36752-1.376377 3.19569-2.196961 5.13185-2.3034551s3.84315.5086471 5.35295 1.7267551c1.5099 1.21811 2.5158 2.95288 2.8235 4.86965s-.1044 3.87976-1.157 5.51016l.2949.2931.958.9527.2755.2766.0115.0114c.1863.1887.3797.3831.5746.5718.2191.1725.3681.4189.4191.6933.0649.3686.0301.7479-.1007 1.0985-.1218.2918-.3271.5409-.59.7161-.263.1751-.5719.2684-.8877.2681h-.0043zm-7.41286-15.27719c-1.38316.00049-2.72336.48111-3.79227 1.35997s-1.80039 2.10159-2.06981 3.45986c-.26943 1.35827-.06013 2.76805.59223 3.98916.65237 1.2211 1.70743 2.178 2.98544 2.7076s2.6999.5992 4.02341.1969c1.32346-.4023 2.46676-1.2516 3.23496-2.4032s1.1138-2.53422.978-3.91233c-.1359-1.3781-.7447-2.66642-1.7229-3.64546-.5544-.55734-1.2135-.99917-1.9394-1.29997-.72585-.3008-1.50407-.45461-2.28966-.45253z" fill="#fff"/></svg>