<svg width="642" height="194" viewBox="0 0 642 194" fill="none" xmlns="http://www.w3.org/2000/svg">
<path opacity="0.4" d="M641.501 193.856C640.853 192.784 639.936 191.896 638.84 191.28C637.744 190.663 636.506 190.338 635.246 190.337C634.159 190.342 633.087 190.586 632.107 191.052C630.908 188.95 629.167 187.202 627.064 185.987C624.962 184.772 622.572 184.134 620.139 184.136C616.811 184.135 613.595 185.33 611.087 187.501C607.699 184.963 603.571 183.591 599.327 183.592C596.603 183.593 593.909 184.159 591.418 185.254C591.165 183.386 590.525 181.591 589.539 179.98C588.553 178.37 587.242 176.98 585.688 175.898C584.134 174.815 582.372 174.064 580.512 173.691C578.652 173.319 576.734 173.332 574.879 173.732C574.879 173.627 574.894 173.523 574.894 173.417C574.889 171.63 574.529 169.86 573.835 168.211C573.141 166.561 572.127 165.063 570.851 163.803C569.574 162.543 568.06 161.544 566.395 160.865C564.73 160.186 562.946 159.839 561.146 159.845C560.145 159.847 559.148 159.957 558.171 160.172C556.772 155.154 554.174 150.544 550.598 146.736C547.022 142.927 542.574 140.032 537.63 138.295C532.687 136.559 527.395 136.033 522.203 136.762C517.011 137.491 512.073 139.453 507.808 142.482C507.288 137.965 505.474 133.692 502.58 130.169C499.686 126.647 495.835 124.024 491.484 122.612C487.133 121.2 482.465 121.058 478.036 122.204C473.606 123.349 469.6 125.734 466.496 129.074C465.748 121.434 462.928 114.138 458.336 107.962C453.745 101.787 447.554 96.9632 440.421 94.0045C433.289 91.0458 425.482 90.0629 417.832 91.1603C410.182 92.2576 402.974 95.3941 396.976 100.236C391.649 92.882 384.589 86.9352 376.414 82.9151C368.238 78.8949 359.197 76.9237 350.078 77.1736C340.959 77.4235 332.04 79.8869 324.1 84.3487C316.161 88.8105 309.442 95.1349 304.531 102.77C294.143 103.074 285.236 106.078 281.835 112.674C281.324 108.813 279.896 105.128 277.667 101.923C275.439 98.7185 272.476 96.0862 269.021 94.2433C263.203 91.1404 256.386 90.4477 250.056 92.3161C243.726 94.1846 238.396 98.4627 235.23 104.218C235.053 104.538 234.975 104.876 234.813 105.205C231.122 104.357 227.372 103.788 223.595 103.501C224.211 100.083 223.722 96.5589 222.2 93.4328C220.678 90.3066 218.2 87.7382 215.121 86.0944C211.396 84.1205 207.06 83.6134 202.976 84.6743C198.892 85.7352 195.361 88.286 193.087 91.8181C184.011 84.4473 172.722 80.2874 161.002 79.9947C156.514 68.0447 147.79 58.1315 136.467 52.1147C126.621 46.88 115.372 44.8386 104.298 46.277C93.225 47.7155 82.8831 52.5615 74.7243 60.135C74.7218 55.0546 73.3338 50.0697 70.7079 45.7097C68.0819 41.3497 64.316 37.7774 59.81 35.3721C55.4285 33.0513 50.5156 31.8995 45.5515 32.0292C40.5875 32.1589 35.7424 33.5658 31.4898 36.1123C30.3893 29.2133 27.6946 22.6612 23.6169 16.9699C19.5393 11.2785 14.1896 6.60258 7.98736 3.30872C5.43546 1.95911 2.76119 0.851316 1.6977e-05 0V193.856C0.561178 194.18 641.501 193.856 641.501 193.856Z" fill="#F7F8FA"/>
</svg>
