<svg fill="none" height="266" viewBox="0 0 647 266" width="647" xmlns="http://www.w3.org/2000/svg" xmlns:xlink="http://www.w3.org/1999/xlink"><linearGradient id="a"><stop offset="0" stop-color="#3c2d7a"/><stop offset=".1533" stop-color="#342769"/><stop offset=".5125" stop-color="#221a46"/><stop offset=".8076" stop-color="#181331"/><stop offset="1" stop-color="#141029"/></linearGradient><linearGradient id="b" gradientUnits="userSpaceOnUse" x1="245.456" x2="322.088" xlink:href="#a" y1="173.484" y2="4.57452"/><linearGradient id="c" gradientUnits="userSpaceOnUse" x1="346.538" x2="394.969" xlink:href="#a" y1="122.657" y2="7.83933"/><linearGradient id="d" gradientUnits="userSpaceOnUse" x1="300.527" x2="352.858" y1="104.267" y2="-67.8662"><stop offset="0" stop-color="#e221ab"/><stop offset=".0498992" stop-color="#ca21a3"/><stop offset=".1584" stop-color="#9b2193"/><stop offset=".2621" stop-color="#762186"/><stop offset=".358" stop-color="#5c217d"/><stop offset=".4436" stop-color="#4c2178"/><stop offset=".5101" stop-color="#462176"/><stop offset="1" stop-color="#462176" stop-opacity="0"/></linearGradient><linearGradient id="e" gradientUnits="userSpaceOnUse" x1="320.649" x2="383.402" y1="165.312" y2="-232.314"><stop offset="0" stop-color="#e221ab"/><stop offset=".5101" stop-color="#462176"/><stop offset="1" stop-color="#462176" stop-opacity="0"/></linearGradient><linearGradient id="f" gradientUnits="userSpaceOnUse" x1="340.847" x2="531.264" y1="73.5235" y2="-229.147"><stop offset="0" stop-color="#e221ab"/><stop offset=".2929" stop-color="#e221ab"/><stop offset=".3798" stop-color="#db21a9" stop-opacity=".8771"/><stop offset=".5056" stop-color="#c821a2" stop-opacity=".6991"/><stop offset=".6552" stop-color="#a82197" stop-opacity=".4876"/><stop offset=".823" stop-color="#7c2188" stop-opacity=".2503"/><stop offset="1" stop-color="#462176" stop-opacity="0"/></linearGradient><mask id="g" height="266" maskUnits="userSpaceOnUse" width="647" x="0" y="0"><path d="m0 0h647v266h-647z" fill="#c4c4c4"/></mask><g mask="url(#g)"><path d="m501.81 205.568c-35.748-37.148-56.498-88.521-101.746-114.7926-32.415-18.8254-72.33-21.4191-110.245-19.9131-37.916 1.5897-78.331 3.7651-116.246 2.008-203.575-9.3708-253.573-207.3303-253.573-207.3303h748.387v399.266c-61.081 5.103-125.078-16.148-166.577-59.238z" fill="url(#b)"/><path d="m670.865 249.774c-26.772 3.774-55.767-.757-80.678-10.972-38.103-15.647-68.456-42.598-96.022-70.348s-53.644-57.111-86.768-79.8272c-39.685-27.19-88.668-43.8983-138.821-47.1742-31.602-2.132-63.681.9077-94.714-4.7168-48.989-8.92-91.8976-40.60548-109.8965-81.1707l2.9017-66.5371 618.6378 26.9792-14.556 333.7708z" fill="url(#c)"/><path d="m606.027 221.586c-14.278-24.654-24.425-51.64-48.239-71.402-29.745-24.721-74.593-33.271-116.757-38.987s-86.587-10.45-121.576-30.5828c-20.722-11.9385-38.127-29.3869-56.486-44.4818-52.428-43.04205-117.697-31.92964-179.4496-41.3415-91.88497-14.012-112.5214-129.3169-112.5214-129.3169l710.778 60.9695-29.389 342.6185c-20.648-10.84-35.795-29.27-46.36-47.476z" fill="url(#d)"/><path d="m656.795 163.386c-1.793 1.626-3.158 12.498-7.169 11.556-19.885-4.451-37.465-22.856-48.645-44.086-7.766-14.81-24.322-62.2345-77.148-58.8959-21.336 1.2841-112.309 30.3039-132.877 33.8139-62.384 10.7-114.272-3.51-156.003-43.744-31.406-30.304-61.275-61.121566-92.425-91.3399-30.979-30.0472-70.4919-56.2422-114.528-56.3278v-29.3623h625.893c.256 15.8368.512 31.588.683 47.4249.512 34.0705 1.024 68.055505 1.536 102.1261.512 32.2729.938 64.5457 1.451 96.819.17 9.245.256 18.49.426 27.65.086 2.311-.341 3.595-1.194 4.366z" fill="url(#e)" opacity=".78"/><path d="m647.907 94c-17.053-20.5323-48.657-32.13-78.13-33.7623-29.194-1.7182-58.204 3.5223-87.213 6.5291-62.282 6.5291-129.198 2.2336-181.748-26.46-55.979-30.49772-91.569-86.1668-154.777-104.3795-4.82-1.3746-10.288-2.4055-15.107-4.2096-2.132-.7732-4.171-1.8041-5.932-3.0068 1.761-1.5463 1.761-.7732 3.707-1.3745 9.732-3.0069 27.99 0 38.278 0h481.015v166.6636z" fill="url(#f)" opacity=".92"/></g></svg>