<svg fill="none" height="22" viewBox="0 0 28 22" width="28" xmlns="http://www.w3.org/2000/svg"><g clip-rule="evenodd" fill="#fff" fill-rule="evenodd"><path d="m23.0542 10.5299c2.5988-2.39059 4.3696-5.75345 4.4278-8.26379.6215 2.59972-1.4562 6.8716-4.6597 9.57759.016-.0734.0303-.1467.043-.2209l.1889-1.0963z"/><path d="m10.4385 21.5138c1.3973.0362 2.7878-.2056 4.0909-.7114 1.303-.5059 2.4926-1.2656 3.4995-2.2351s1.8111-2.1294 2.3659-3.4124c.5548-1.2829.8491-2.6633.8658-4.061.0358-1.9561-.4571-3.88556-1.4267-5.58482 1.6021-2.04065 5.0451-3.7887 7.1751-3.36202-7.4686-3.12-15.1497 11.53224-16.8033 14.43214l-5.87486-7.0664 3.14193-.02783 2.38301 2.36113c3.15202-4.43129 5.53002-6.87586 8.13392-8.73605-1.9113-1.90323-4.4719-3.0129946-7.1676-3.10651341-1.39713-.03618759-2.78755.20564241-4.09044.71144241-1.30289.505801-2.49228 1.265481-3.49905 2.234901-1.00676.96942-1.81083 2.12926-2.365494 3.41211-.554665 1.28285-.8488652 2.66314-.86549132 4.06071-.04905878 2.8443 1.01458532 5.5954 2.96427532 7.667s4.63129 3.3 7.4734 3.4233z"/></g></svg>