<svg width="17" height="16" viewBox="0 0 17 16" fill="none" xmlns="http://www.w3.org/2000/svg">
<path d="M16.2992 8.17605C16.2998 7.64047 16.2515 7.10587 16.1549 6.57837H8.65723V9.59524H12.9412C12.8549 10.0701 12.6698 10.5234 12.3969 10.9283C12.1241 11.3332 11.7689 11.6812 11.3528 11.9518V13.9082H13.9219C14.7087 13.1615 15.3257 12.2667 15.7341 11.2802C16.1426 10.2936 16.3336 9.23677 16.2951 8.17605H16.2992Z" fill="#4285F4"/>
<path d="M8.65894 15.7975C10.604 15.8462 12.4928 15.1687 13.9268 13.9079L11.3541 11.9515C10.7425 12.3386 10.0451 12.5836 9.31732 12.6669C8.58959 12.7503 7.8516 12.6697 7.16207 12.4315C6.46701 12.1883 5.8391 11.7961 5.32625 11.2848C4.8134 10.7736 4.42917 10.1567 4.20289 9.48145H1.54419V11.5024C2.19173 12.785 3.20187 13.8676 4.45969 14.627C5.71752 15.3863 7.17248 15.7919 8.65894 15.7975V15.7975Z" fill="#34A853"/>
<path d="M4.2047 9.48096C3.87217 8.51865 3.87217 7.47921 4.2047 6.5169V4.49634H1.546C0.989312 5.58692 0.699951 6.78501 0.699951 7.99915C0.699951 9.21329 0.989312 10.4114 1.546 11.502L4.20609 9.48096H4.2047Z" fill="#FBBC05"/>
<path d="M8.65899 3.30188C9.22136 3.29377 9.77983 3.39265 10.3021 3.59281C10.8243 3.79296 11.3 4.09042 11.7015 4.46795L13.9842 2.23138C12.5558 0.910083 10.6425 0.180529 8.65765 0.200345C7.17137 0.206507 5.71671 0.612457 4.45923 1.37201C3.20176 2.13156 2.19194 3.2142 1.54468 4.49676L4.20382 6.51732C4.49873 5.6002 5.08808 4.79569 5.88787 4.21842C6.68765 3.64114 7.65712 3.32055 8.6581 3.30231L8.65899 3.30188Z" fill="#EA4335"/>
</svg>
