<svg width="16" height="16" viewBox="0 0 16 16" fill="none" xmlns="http://www.w3.org/2000/svg">
<path d="M7.99997 16C10.0494 16 11.9191 15.227 13.3393 13.9596H2.66064C4.07188 15.227 5.95053 16 7.99997 16Z" fill="#165FAA"/>
<path d="M10.2921 0.332584C9.56404 0.116854 8.79101 0 8 0C3.57753 0 0 3.57753 0 8C0 9.28539 0.305618 10.4989 0.844944 11.5775H10.2921V0.332584Z" fill="#165FAA"/>
<path d="M0.844971 11.5776C1.29441 12.4855 1.91463 13.2855 2.6607 13.9597H13.3393C14.0854 13.2945 14.7056 12.4855 15.1551 11.5776H0.844971Z" fill="white"/>
<path d="M15.9102 9.1955H10.2922V11.5775H15.1641C15.5237 10.8404 15.7844 10.0404 15.9102 9.1955Z" fill="#165FAA"/>
<path d="M10.2922 9.19544H15.9102C15.9731 8.80892 16.0001 8.40443 16.0001 7.99993C16.0001 7.59544 15.9731 7.19993 15.9102 6.81342H10.2832V9.19544H10.2922Z" fill="white"/>
<path d="M15.1641 4.43158H10.2922V6.8136H15.9102C15.7844 5.96866 15.5327 5.16866 15.1641 4.43158Z" fill="#165FAA"/>
<path d="M10.2922 4.43146H15.1641C14.7147 3.52359 14.0945 2.7236 13.3574 2.04944H10.2922V4.43146Z" fill="white"/>
<path d="M10.2922 0.33252V2.05836H13.3574C12.4855 1.26735 11.4428 0.674092 10.2922 0.33252Z" fill="#165FAA"/>
<path d="M0.0898438 6.8136H10.2921V4.43158H0.835911C0.467372 5.16866 0.215686 5.96866 0.0898438 6.8136Z" fill="white"/>
<path d="M3.146 1.63597V11.5686H5.52802V0.386536C4.65611 0.674176 3.85611 1.09665 3.146 1.63597Z" fill="white"/>
</svg>