<svg width="26" height="26" viewBox="0 0 26 26" fill="none" xmlns="http://www.w3.org/2000/svg">
<path d="M9.97092 13.2344C11.8776 13.2344 13.4233 11.6299 13.4233 9.65054C13.4233 7.67121 11.8776 6.06665 9.97092 6.06665C8.06423 6.06665 6.51855 7.67121 6.51855 9.65054C6.51855 11.6299 8.06423 13.2344 9.97092 13.2344Z" fill="#2B2929"/>
<path d="M4.33384 17.7743C4.63222 16.8469 5.20393 16.0404 5.96811 15.4689C6.73229 14.8973 7.65022 14.5897 8.59208 14.5895H11.5642C12.4945 14.5896 13.4019 14.8896 14.1608 15.4481C14.9198 16.0066 15.4929 16.796 15.801 17.7072C14.2092 19.1317 12.1806 19.9208 10.079 19.9331C7.97743 19.9454 5.94042 19.1801 4.33325 17.7743H4.33384Z" fill="#2B2929"/>
<path d="M17.8708 7.91577H18.6246C18.6363 7.92206 18.6485 7.92726 18.6611 7.93131C18.8191 7.9628 18.9637 8.04431 19.0752 8.16462C19.1867 8.28494 19.2596 8.43816 19.2838 8.60321C19.2949 8.7016 19.2991 8.80068 19.2964 8.8997C19.296 8.98149 19.3137 9.06229 19.3479 9.13597C19.3821 9.20965 19.432 9.27428 19.4939 9.32495C19.5558 9.37562 19.6279 9.41101 19.7049 9.42844C19.7819 9.44587 19.8617 9.44487 19.9382 9.42553C20.039 9.39093 20.1351 9.34332 20.2244 9.28382C20.4046 9.17722 20.618 9.14876 20.8182 9.20463C21.0185 9.2605 21.1894 9.39618 21.2938 9.58216C21.386 9.74252 21.4758 9.90454 21.5632 10.0682C21.6636 10.2532 21.6903 10.4716 21.6376 10.6767C21.5849 10.8818 21.457 11.0574 21.2812 11.1659C21.2345 11.1951 21.1866 11.2224 21.1399 11.251C21.0582 11.298 20.9901 11.3669 20.9427 11.4505C20.8952 11.534 20.8702 11.6292 20.8702 11.7262C20.8702 11.8232 20.8952 11.9184 20.9427 12.002C20.9901 12.0855 21.0582 12.1544 21.1399 12.2014C21.1914 12.2331 21.2447 12.2636 21.2956 12.2959C21.4647 12.4044 21.5876 12.5758 21.6394 12.775C21.6913 12.9743 21.6681 13.1865 21.5746 13.3687C21.4818 13.5483 21.3872 13.7279 21.2788 13.8976C21.1994 14.0327 21.0828 14.14 20.9441 14.2057C20.8053 14.2714 20.6508 14.2925 20.5004 14.2662C20.3503 14.2332 20.2079 14.1698 20.0814 14.0797C20.0075 14.0363 19.9245 14.0121 19.8396 14.0095C19.7547 14.0068 19.6705 14.0257 19.5943 14.0644C19.518 14.1032 19.452 14.1607 19.402 14.2319C19.3519 14.3031 19.3194 14.386 19.3072 14.4732C19.2993 14.5606 19.2971 14.6484 19.3006 14.7361C19.3 14.9238 19.2352 15.1051 19.1178 15.2478C19.0003 15.3905 18.8378 15.4851 18.6593 15.5149C18.401 15.5474 18.1399 15.5501 17.8809 15.523C17.7091 15.5048 17.5485 15.4258 17.4261 15.2993C17.3037 15.1727 17.2269 15.0064 17.2085 14.8281C17.2001 14.7293 17.1971 14.6301 17.1996 14.531C17.1973 14.4536 17.179 14.3776 17.1457 14.3083C17.1124 14.239 17.0651 14.178 17.0069 14.1296C16.9487 14.0811 16.8811 14.0464 16.8087 14.0277C16.7363 14.009 16.6609 14.0068 16.5877 14.0213C16.4756 14.0552 16.3686 14.1049 16.2697 14.1692C16.0902 14.274 15.8783 14.3017 15.6794 14.2464C15.4804 14.1911 15.3102 14.0572 15.2051 13.8734C15.1111 13.7105 15.0195 13.5464 14.9315 13.3799C14.8328 13.1956 14.8067 12.9787 14.8588 12.7749C14.911 12.5711 15.0373 12.3963 15.2111 12.2872C15.2644 12.253 15.3201 12.225 15.3734 12.1883C15.4506 12.1404 15.5145 12.0726 15.559 11.9915C15.6035 11.9104 15.6271 11.8188 15.6275 11.7254C15.6278 11.6321 15.605 11.5402 15.5611 11.4587C15.5172 11.3773 15.4538 11.3089 15.377 11.2604C15.3261 11.2274 15.2734 11.1982 15.2219 11.1659C15.0426 11.0578 14.9119 10.8803 14.8585 10.6723C14.8051 10.4643 14.8332 10.2428 14.9369 10.0564C15.0223 9.89812 15.1097 9.74107 15.1991 9.58527C15.2503 9.49148 15.319 9.40922 15.4012 9.34326C15.4833 9.2773 15.5773 9.22897 15.6776 9.20108C15.7779 9.1732 15.8825 9.16632 15.9854 9.18084C16.0883 9.19537 16.1874 9.231 16.2769 9.28568C16.3314 9.31738 16.3847 9.35219 16.441 9.3814C16.5118 9.41861 16.59 9.43843 16.6694 9.43931C16.7488 9.4402 16.8274 9.42214 16.899 9.38653C16.9706 9.35091 17.0334 9.29869 17.0825 9.2339C17.1316 9.1691 17.1657 9.09347 17.1822 9.01282C17.1959 8.9178 17.2009 8.82165 17.1972 8.72566C17.1986 8.53977 17.2606 8.35985 17.3731 8.21525C17.4857 8.07065 17.6421 7.96991 17.8169 7.92945C17.836 7.92945 17.8534 7.92199 17.8708 7.91577ZM18.245 13.089C18.5929 13.0893 18.9268 12.9463 19.1732 12.6913C19.4196 12.4363 19.5584 12.0902 19.5592 11.729C19.5591 11.3692 19.4219 11.0241 19.1776 10.7689C18.9333 10.5136 18.6017 10.369 18.2551 10.3666C17.9073 10.3654 17.5733 10.5076 17.3263 10.7618C17.0793 11.0161 16.9397 11.3617 16.9379 11.7228C16.9371 12.0837 17.0742 12.4301 17.3191 12.6862C17.564 12.9423 17.8968 13.0872 18.2444 13.089H18.245Z" fill="#2B2929"/>
</svg>
