<svg width="16" height="16" viewBox="0 0 16 16" fill="none" xmlns="http://www.w3.org/2000/svg">
<path d="M0.235702 6.07999C1.29543 1.79375 5.62414 -0.821137 9.90795 0.239193C14.1918 1.29952 16.8051 5.6307 15.7454 9.91695C14.6857 14.2032 10.357 16.8181 6.07318 15.7578C1.78937 14.7064 -0.824024 10.3662 0.235702 6.07999Z" fill="#2B2929"/>
<path d="M13.6619 2.36885L10.4468 4.51646V0.39196C10.2672 0.338045 10.0965 0.28413 9.90794 0.239201C8.39918 -0.138205 6.89042 -0.0483462 5.51637 0.400946V4.50748L2.31923 2.37783C1.58281 3.11467 0.990079 4.00427 0.585946 5.01069L1.43013 5.57679H0.379389C0.325505 5.73854 0.280601 5.90927 0.235698 6.08C-0.141493 7.59861 -0.0516857 9.1262 0.406331 10.51H1.45708L0.621869 11.0671C1.026 12.0466 1.62771 12.9362 2.38209 13.682L5.52535 11.5883V15.605C5.70496 15.6679 5.89356 15.7218 6.08215 15.7667C7.58193 16.1352 9.0907 16.0543 10.4558 15.614V11.5883L13.617 13.691C14.3624 12.9632 14.9641 12.0825 15.3772 11.0761L14.524 10.501H15.5927C15.6556 10.3123 15.7095 10.1146 15.7634 9.91696C16.1316 8.42531 16.0597 6.93366 15.6197 5.56781H14.533L15.3952 4.99271C15 4.01326 14.4073 3.12366 13.6619 2.36885Z" fill="#F8F9FB"/>
<path d="M4.28605 5.57686L1.3224 3.59998C1.12483 3.89651 0.945214 4.21101 0.792542 4.54349L2.33723 5.57686H4.28605ZM14.6498 3.582C14.4522 3.27649 14.2277 2.98894 13.9942 2.71936L10.4468 5.08264V5.57686H11.6592L14.6498 3.582ZM1.34037 12.4331C1.53794 12.7296 1.76246 13.0171 1.99596 13.2957L5.50742 10.9594V10.5101H4.23216L1.34037 12.4331ZM15.8622 6.60125H9.42302V0.13144C8.44412 -0.0482773 7.4742 -0.0392915 6.54919 0.13144V6.59226H0.127968C-0.0426657 7.57172 -0.033685 8.54219 0.136949 9.46773H6.54021V15.8477C7.51911 16.0274 8.48903 16.0274 9.41404 15.8567V9.46773H15.8353C16.0328 8.50625 16.0239 7.53578 15.8622 6.60125ZM11.7311 10.5101L14.6408 12.4421C14.8384 12.1455 15.018 11.831 15.1797 11.4985L13.6889 10.5011L11.7311 10.5101Z" fill="#E52A18"/>
<path d="M10.4468 1.22766V1.74861C10.4737 1.64981 10.4917 1.55999 10.4917 1.47017C10.5007 1.38035 10.4827 1.29952 10.4468 1.22766Z" fill="#2B2929"/>
</svg>