<svg width="8" height="8" viewBox="0 0 8 8" fill="none" xmlns="http://www.w3.org/2000/svg">
<path d="M2.10069 0.58134C1.68112 0.16177 1.00086 0.16177 0.581289 0.58134C0.161718 1.00091 0.161718 1.68117 0.581289 2.10073L2.48055 3.99999L0.58128 5.89926C0.161709 6.31883 0.161709 6.99908 0.58128 7.41865C1.00085 7.83822 1.68111 7.83822 2.10068 7.41865L3.99995 5.51939L5.89919 7.41862C6.31876 7.83819 6.99902 7.83819 7.41859 7.41862C7.83816 6.99905 7.83816 6.31879 7.41859 5.89922L5.51935 3.99999L7.41858 2.10077C7.83815 1.6812 7.83815 1.00094 7.41858 0.581374C6.99901 0.161805 6.31875 0.161805 5.89918 0.581374L3.99995 2.4806L2.10069 0.58134Z" fill="#2B2929"/>
</svg>