<svg width="17" height="16" viewBox="0 0 17 16" fill="none" xmlns="http://www.w3.org/2000/svg">
<path d="M8.48993 15.9168C8.19215 15.8525 7.88515 15.8157 7.60271 15.7145C7.21896 15.5797 6.98564 15.2977 6.96415 14.8687C6.94573 14.553 6.90582 14.2404 6.87819 13.9247C6.87205 13.8358 6.83828 13.796 6.75232 13.7623C6.43305 13.6397 6.12298 13.5017 5.8037 13.3791C5.75765 13.3608 5.67476 13.373 5.63485 13.4037C5.37697 13.6059 5.12216 13.8082 4.87656 14.0228C4.57264 14.2894 4.2288 14.3323 3.87575 14.1791C3.25561 13.9124 2.80126 13.4588 2.53724 12.8397C2.38681 12.4873 2.43286 12.144 2.69995 11.8437C2.91177 11.6015 3.10825 11.3472 3.31701 11.102C3.3692 11.0407 3.37841 10.9947 3.34464 10.915C3.20649 10.6024 3.07755 10.2867 2.95475 9.97106C2.92405 9.89137 2.88414 9.86072 2.80126 9.85459C2.47584 9.82701 2.15042 9.7841 1.825 9.76571C1.45353 9.74426 1.20486 9.55118 1.04215 9.23856C0.830326 8.82481 0.802696 8.37428 0.857956 7.92682C0.888656 7.68469 0.953125 7.43338 1.05443 7.21271C1.19872 6.89703 1.46274 6.71927 1.825 6.69782C2.15042 6.67943 2.47584 6.63652 2.80126 6.60894C2.88414 6.60281 2.92098 6.56603 2.95168 6.48941C3.07448 6.17373 3.21263 5.86112 3.33543 5.54238C3.35385 5.49334 3.34771 5.41366 3.31701 5.37381C3.11132 5.1133 2.90256 4.85586 2.6846 4.60454C2.44207 4.32564 2.38374 4.0069 2.51268 3.6759C2.7767 3.00163 3.25561 2.52352 3.93101 2.25994C4.26257 2.13122 4.58185 2.18639 4.86121 2.42851C5.11295 2.64611 5.37083 2.85452 5.63178 3.05987C5.67169 3.09051 5.75151 3.09971 5.80063 3.08132C6.11991 2.95873 6.42998 2.82081 6.74925 2.69822C6.826 2.66757 6.86591 2.63385 6.87205 2.5511C6.89968 2.2201 6.93959 1.89216 6.96108 1.56116C6.98257 1.22403 7.15142 0.984975 7.43079 0.822539C7.85752 0.577353 8.32722 0.552834 8.8 0.608001C9.04867 0.635585 9.30348 0.706076 9.53066 0.81028C9.84073 0.951262 10.0157 1.21484 10.0372 1.57036C10.0556 1.89523 10.0986 2.2201 10.1262 2.54497C10.1324 2.62772 10.1631 2.66757 10.2429 2.69822C10.5652 2.82387 10.8815 2.96179 11.2069 3.08745C11.2529 3.10584 11.3358 3.09051 11.3757 3.05987C11.6367 2.85452 11.8945 2.64611 12.1463 2.42851C12.4164 2.19558 12.7296 2.13735 13.0489 2.25688C13.7365 2.51739 14.2247 3.00163 14.4887 3.68816C14.6145 4.01303 14.5562 4.32871 14.3198 4.60148C14.1019 4.85279 13.8992 5.1133 13.6843 5.36462C13.6291 5.42898 13.6322 5.47802 13.6629 5.55157C13.7979 5.85806 13.9269 6.1676 14.0466 6.48328C14.0804 6.56603 14.1172 6.60281 14.2062 6.60894C14.5317 6.63346 14.8571 6.67636 15.1825 6.69782C15.5662 6.72234 15.818 6.93075 15.9746 7.25868C16.168 7.66324 16.1956 8.09538 16.1434 8.53059C16.1158 8.76964 16.0544 9.01483 15.9561 9.23243C15.8149 9.55731 15.5509 9.74426 15.1825 9.76878C14.8571 9.79023 14.5317 9.83008 14.2062 9.85766C14.1172 9.86379 14.0773 9.90057 14.0466 9.98638C13.9269 10.299 13.7979 10.6085 13.6629 10.9181C13.6291 10.9947 13.626 11.0407 13.6843 11.105C13.8992 11.3564 14.1049 11.6169 14.3198 11.8682C14.5562 12.144 14.6115 12.4597 14.4887 12.7815C14.2247 13.4619 13.7427 13.9431 13.0611 14.2067C12.7296 14.3354 12.4103 14.2741 12.134 14.032C11.8884 13.8174 11.6305 13.6182 11.3819 13.4067C11.3174 13.3516 11.2713 13.3516 11.1946 13.3853C10.8876 13.5201 10.5745 13.6489 10.2644 13.7714C10.1846 13.8021 10.1416 13.8358 10.1324 13.9278C10.1078 14.2526 10.0648 14.5775 10.0433 14.9024C10.0188 15.2732 9.82538 15.5184 9.51224 15.6839C9.25129 15.8218 8.91666 15.8831 8.50221 15.8831C8.49607 15.8892 8.493 15.9046 8.48993 15.9168ZM5.773 8.21491C5.76379 9.67377 7.02555 10.9457 8.48686 10.9579C9.94511 10.9702 11.2284 9.70748 11.2376 8.25169C11.2468 6.78976 9.99116 5.51479 8.53291 5.50253C7.06239 5.49028 5.78221 6.74686 5.773 8.21491Z" fill="#8C8C8C"/>
</svg>
