<svg width="97" height="34" viewBox="0 0 97 34" fill="none" xmlns="http://www.w3.org/2000/svg">
<path d="M50.4533 18.8262C50.1934 19.3728 49.9336 19.9104 49.6738 20.457C47.5234 25.9318 54.2791 17.509 54.6823 16.9803C56.9313 13.9786 58.0513 11.8102 58.0513 10.4841C58.0513 5.07199 50.8027 17.9839 50.4533 18.8262ZM21.0468 0.878536C21.5665 1.04878 22.0862 1.57745 22.6596 2.2674C23.2331 2.94838 23.5287 3.54873 23.5287 4.04155C23.5287 4.56125 23.2958 4.8211 22.8209 4.8211C22.3729 4.8211 22.0683 4.3462 21.45 4.05947C18.2424 2.55413 3.79004 13.4858 10.5548 14.1757C12.8664 14.4087 20.2852 14.2564 20.2852 17.8316C20.2852 18.8979 18.5291 21.7562 15.7067 23.8978C12.8844 26.0482 2.84029 33.0105 1.6755 33.0105C1.29919 33.0105 0.922871 32.7954 0.555515 32.3743C0.179198 31.9531 0 31.5499 0 31.1736C0 30.9406 0.0806392 30.7256 0.250878 30.5374C0.797432 30.3044 19.1563 18.1631 15.9486 17.0879C13.9595 16.4427 11.5045 16.8549 9.41687 16.5234C8.18936 16.3083 7.13209 15.8245 6.25402 15.0718C0.707833 10.2153 17.7944 -0.21463 21.0468 0.878536ZM94.3389 1.21903C95.3783 1.50576 95.8979 1.90898 95.8979 2.42868C95.8979 2.99319 95.1005 3.85338 93.5056 4.98239C92.8157 5.47521 89.9127 7.22249 91.8212 7.35689C92.1527 7.38377 92.4036 7.39273 92.5648 7.39273C92.9412 7.39273 93.4877 7.35689 94.1956 7.28521C94.9034 7.21353 95.4499 7.17768 95.8263 7.17768C96.6058 7.17768 97 7.39273 97 7.81387C97 8.37838 95.7904 8.84431 93.3802 9.20273C87.1441 10.1615 88.0222 9.821 83.8648 15.3406C81.4994 18.4409 80.0568 20.5197 79.5371 21.586C76.6252 27.8493 89.8858 18.7187 91.6061 17.6076C92.0093 17.3746 92.3588 17.2402 92.6724 17.2133L93.0666 17.3208C93.1114 17.4194 93.1741 17.5359 93.2458 17.6793C93.2458 18.9606 91.409 20.6631 87.7444 22.7956C85.5313 24.0859 76.3832 28.9514 76.3832 22.9032C76.3832 21.6487 79.6267 15.1614 75.8815 15.1614C74.8421 15.1614 73.6236 15.6273 72.2258 16.5502C70.9267 17.4284 69.9769 18.3334 69.3856 19.2832C68.5612 20.7975 67.728 22.3118 66.9037 23.8261C65.5776 26.102 64.5382 27.231 63.7766 27.231C63.4003 27.231 63.0509 27.0608 62.7463 26.7203C62.4416 26.3798 62.2803 26.0124 62.2803 25.6361C62.2803 24.8565 62.6567 23.8978 63.4183 22.7598C64.0275 21.8548 64.4755 21.1828 64.7712 20.7347C64.0454 20.9767 63.3824 21.0932 62.7731 21.0932C61.8055 21.0932 60.9543 20.6989 60.2196 19.9193C59.7716 19.4265 59.3236 18.7007 58.8666 17.7509C57.8631 15.5377 57.2359 17.0431 55.9905 18.8889C54.5211 21.0394 53.4728 22.4641 52.8276 23.1451C51.4299 24.6863 50.0949 25.4569 48.8136 25.4569C48.1506 25.4569 47.5592 25.0984 47.0395 24.3906C46.5199 23.6827 46.26 22.9748 46.26 22.258C46.26 21.9713 46.2869 21.6487 46.3496 21.3082L46.1973 21.4426C44.9429 22.4372 43.7333 22.93 42.5775 22.93C40.5167 22.93 39.0115 21.6666 38.0707 19.1308C37.6675 17.733 37.2822 16.3262 36.8969 14.9105C35.4992 14.9374 33.1338 17.061 29.8007 21.2992C29.3258 22.0071 28.8509 22.715 28.385 23.4318C27.1754 25.0178 26.5213 24.8834 25.4014 23.6827C25.0698 23.2795 24.9086 22.8763 24.9086 22.4731C24.9086 21.8369 25.2849 20.8781 26.0465 19.5968C26.8081 18.3154 27.1844 17.3836 27.1844 16.7922H27.0769C25.9389 17.5986 24.4874 19.4892 22.7134 22.4731C21.1723 25.0984 20.0881 26.4156 19.452 26.4156C19.0757 26.4156 18.6545 26.2006 18.1886 25.7794C16.6565 24.3637 19.4072 20.8423 20.3748 18.6111C21.2619 16.5144 24.3172 11.9446 21.9518 11.0844C20.7422 10.6454 21.3604 9.49842 22.0145 8.84431C23.8961 6.96263 26.6289 8.89808 26.6289 10.9769C26.6289 11.3084 26.4497 12.1238 26.1002 13.4231C26.8887 13.4231 27.265 12.5718 28.9047 12.5718C30.6519 12.5718 31.4762 13.5216 31.3507 15.4123C32.0496 15.4123 33.3309 13.7188 34.0118 13.1722C35.0512 12.2941 36.0009 11.855 36.8521 11.855C38.2051 11.855 39.1459 12.5629 39.6924 13.9876C39.7641 14.1757 40.0508 15.4929 40.5436 17.9301C40.8303 19.3548 41.3321 20.0627 42.0668 20.0627C42.8015 20.0627 44.3068 19.2025 46.5736 17.4732C48.1237 16.2187 48.3029 16.2366 49.2974 14.5252C51.2597 11.1382 52.9889 8.94288 54.4763 7.9214C57.0388 6.20996 58.2305 7.6705 60.121 9.37298C60.2196 9.44466 60.6048 9.62387 61.2948 9.90164C61.7696 10.1167 62.0743 10.4213 62.2176 10.8246C62.3162 11.0844 62.361 11.3801 62.361 11.7116C62.361 11.9984 62.3162 12.4195 62.2176 12.993C62.0205 14.1847 61.5098 15.2331 61.5098 16.2635C61.5098 17.6613 61.9399 18.3602 62.7911 18.3602C66.16 18.3602 67.5577 15.2241 68.7584 12.7152C68.8569 12.527 69.1616 11.64 69.6812 10.054C70.1292 8.72783 70.4697 7.94828 70.7116 7.71531C71.1238 7.30313 72.0646 8.1006 72.3782 8.38733C72.871 8.83535 73.1218 9.31025 73.1218 9.81203C73.1218 10.1705 73.0054 10.6543 72.7814 11.2815C72.5574 11.9088 72.4409 12.4016 72.4409 12.751C73.9103 12.4912 74.8063 12.3568 75.1378 12.3568C77.6018 12.3568 79.5999 13.8711 79.9224 16.2456C80.5586 15.4481 81.356 14.4804 82.3147 13.3514C83.6856 11.7385 84.3576 10.7708 84.3396 10.4393V10.2959C84.035 10.2959 83.4168 10.3407 82.4939 10.4393C81.7144 10.5378 81.0872 10.5826 80.6123 10.5826C79.7611 10.5826 79.0264 10.4303 78.4082 10.1167C77.7004 9.75828 77.342 9.27441 77.342 8.66511C77.342 8.36045 77.8079 8.19917 78.7307 8.19917C79.0354 8.19917 79.4834 8.22605 80.0658 8.27085C80.6482 8.31565 81.0782 8.34253 81.365 8.34253C86.5259 8.34253 86.8843 8.08268 90.3786 4.39996C92.0452 2.66165 93.3712 1.59537 94.3389 1.21903Z" fill="#2B2929"/>
<path d="M32.0671 30.2149C32.0761 30.1969 32.085 30.179 32.094 30.1611C32.1029 30.1432 32.1029 30.1163 32.1119 30.0984V30.0715C32.1209 30.0446 32.1209 30.0267 32.1119 29.9908C32.1119 29.964 32.1029 29.9371 32.094 29.9192C32.0671 29.8385 32.0133 29.7758 31.9327 29.7489C31.8969 29.731 31.861 29.731 31.8162 29.722C31.7714 29.722 31.7266 29.722 31.6818 29.722H31.2697H31.2607C31.2607 29.722 31.2518 29.722 31.2428 29.722C31.2249 29.731 31.207 29.74 31.198 29.7579C31.189 29.7758 31.189 29.7937 31.189 29.8206C31.189 29.8475 31.189 29.8744 31.189 29.8923V30.179C31.189 30.2059 31.189 30.2328 31.189 30.2597C31.189 30.2865 31.198 30.3045 31.207 30.3224C31.2159 30.3313 31.2249 30.3403 31.2428 30.3403C31.2607 30.3403 31.2786 30.3403 31.2965 30.3403H31.4489C31.5116 30.3403 31.5743 30.3403 31.637 30.3403C31.6997 30.3403 31.7535 30.3403 31.8073 30.3313C31.861 30.3224 31.9058 30.3134 31.9506 30.2865C32.0133 30.2776 32.0492 30.2507 32.0671 30.2149ZM32.3717 31.2543C32.3807 31.2722 32.3807 31.2901 32.3628 31.308C32.3538 31.317 32.3449 31.317 32.3269 31.317C32.318 31.317 32.3001 31.317 32.2911 31.317C32.2642 31.317 32.2373 31.317 32.2105 31.317C32.1836 31.317 32.1657 31.308 32.1477 31.2991C32.1298 31.2901 32.1298 31.2811 32.1209 31.2632C32.1209 31.2453 32.1119 31.2274 32.1119 31.2095C32.1119 31.2005 32.1119 31.2005 32.1119 31.1915C32.1119 31.1826 32.1119 31.1826 32.1119 31.1736C32.1119 31.1647 32.1119 31.1557 32.1119 31.1467C32.1119 31.1378 32.1119 31.1288 32.1119 31.1288C32.1119 31.1199 32.1119 31.1109 32.1119 31.1019C32.1119 31.093 32.1119 31.084 32.1119 31.075L32.1029 30.9586C32.1029 30.9496 32.094 30.9317 32.094 30.9227C32.094 30.9138 32.094 30.8958 32.085 30.8869C32.0761 30.86 32.0671 30.8242 32.0671 30.7973C32.0671 30.7704 32.0581 30.7346 32.0402 30.7077C32.0044 30.636 31.9596 30.5912 31.8789 30.5643C31.861 30.5553 31.8341 30.5553 31.8073 30.5464C31.7804 30.5464 31.7535 30.5464 31.7266 30.5464H31.2697C31.2607 30.5464 31.2518 30.5553 31.2428 30.5553C31.2338 30.5553 31.2249 30.5643 31.2159 30.5733C31.207 30.5912 31.198 30.6181 31.198 30.6539C31.198 30.6898 31.198 30.7256 31.198 30.7525V31.1198C31.198 31.1467 31.198 31.1736 31.198 31.2095C31.198 31.2453 31.198 31.2722 31.189 31.2901C31.189 31.2991 31.1801 31.308 31.1711 31.317C31.1622 31.317 31.1622 31.3259 31.1532 31.3259C31.1442 31.3259 31.1442 31.3259 31.1353 31.3349C31.1263 31.3349 31.1174 31.3349 31.1084 31.3349C31.0994 31.3349 31.0905 31.3349 31.0815 31.3349C31.0636 31.3349 31.0457 31.3349 31.0278 31.3349C31.0098 31.3349 30.9919 31.3259 30.983 31.317C30.974 31.308 30.965 31.2901 30.965 31.2722C30.965 31.2453 30.965 31.2274 30.965 31.2095V29.6772C30.965 29.6593 30.965 29.6414 30.965 29.6235C30.965 29.6055 30.965 29.5876 30.974 29.5787C30.983 29.5697 30.9919 29.5607 31.0098 29.5518H31.0188H31.0278H31.7535C31.7625 29.5518 31.7804 29.5518 31.7893 29.5518C31.7983 29.5518 31.8162 29.5518 31.8252 29.5518H31.8521C31.861 29.5518 31.87 29.5518 31.8789 29.5518C31.8879 29.5518 31.8969 29.5518 31.9148 29.5518C31.9237 29.5518 31.9417 29.5607 31.9596 29.5607C31.9775 29.5607 31.9865 29.5607 32.0044 29.5697C32.0402 29.5787 32.0671 29.5876 32.094 29.6055C32.1209 29.6145 32.1477 29.6324 32.1657 29.6503C32.2105 29.6772 32.2373 29.7131 32.2642 29.7579C32.2911 29.8027 32.309 29.8475 32.3269 29.9012C32.3269 29.9102 32.3359 29.9281 32.3359 29.946C32.3359 29.964 32.3359 29.9729 32.3449 29.9908V30.0177C32.3449 30.0267 32.3449 30.0356 32.3449 30.0446C32.3449 30.0536 32.3449 30.0625 32.3449 30.0715V30.0984C32.3449 30.1073 32.3359 30.1252 32.3359 30.1342C32.3359 30.1432 32.3359 30.1611 32.3269 30.1701C32.318 30.1969 32.309 30.2149 32.3001 30.2417C32.2911 30.2686 32.2821 30.2865 32.2732 30.3045C32.2642 30.3134 32.2642 30.3224 32.2553 30.3313C32.2463 30.3403 32.2463 30.3493 32.2373 30.3582C32.2373 30.3582 32.2373 30.3582 32.2284 30.3582C32.2284 30.3582 32.2284 30.3582 32.2194 30.3582L32.2105 30.3672C32.2105 30.3761 32.2015 30.3761 32.2015 30.3761C32.1925 30.3851 32.1746 30.3941 32.1657 30.403C32.1567 30.412 32.1388 30.4209 32.1298 30.4299C32.1209 30.4389 32.1119 30.4389 32.1029 30.4478C32.094 30.4568 32.094 30.4657 32.094 30.4747C32.094 30.4837 32.094 30.4926 32.1029 30.5016C32.1119 30.5105 32.1209 30.5105 32.1298 30.5195C32.1477 30.5285 32.1657 30.5464 32.1836 30.5553C32.2015 30.5643 32.2105 30.5822 32.2284 30.6001C32.2463 30.627 32.2642 30.6539 32.2642 30.6808C32.2732 30.7077 32.2821 30.7435 32.2911 30.7794C32.2911 30.7883 32.2911 30.8062 32.3001 30.8152C32.3001 30.8242 32.3001 30.8421 32.309 30.851C32.309 30.86 32.309 30.8779 32.309 30.8869C32.309 30.8958 32.309 30.9138 32.309 30.9227V30.9496C32.309 30.9586 32.309 30.9765 32.309 30.9854C32.309 31.0034 32.309 31.0123 32.309 31.0213C32.309 31.0302 32.309 31.0302 32.309 31.0392C32.309 31.0482 32.309 31.0482 32.309 31.0571C32.309 31.0751 32.318 31.093 32.318 31.1109C32.318 31.1288 32.3269 31.1467 32.3269 31.1557C32.3269 31.1647 32.3359 31.1736 32.3359 31.1826C32.3359 31.1915 32.3359 31.2005 32.3449 31.2095L32.3717 31.2543ZM27.7305 29.5249H28.5548H28.7699C28.7878 29.5249 28.8057 29.5249 28.8236 29.5249C28.8415 29.5249 28.8595 29.5249 28.8684 29.5339C28.8774 29.5339 28.8774 29.5428 28.8774 29.5428C28.8774 29.5518 28.8863 29.5518 28.8863 29.5607C28.8863 29.5697 28.8953 29.5876 28.8953 29.6145C28.8953 29.6414 28.8953 29.6593 28.8863 29.6772C28.8774 29.7041 28.8684 29.7131 28.8415 29.7131C28.8236 29.7131 28.7967 29.7131 28.7609 29.7131H28.51H28.0889C28.062 29.7131 28.0351 29.7131 27.9903 29.7131C27.9545 29.7131 27.9276 29.7131 27.9097 29.731C27.8918 29.74 27.8828 29.7579 27.8828 29.7848C27.8828 29.8116 27.8828 29.8385 27.8828 29.8654V30.1252C27.8828 30.1432 27.8828 30.1611 27.8828 30.188C27.8828 30.2149 27.8828 30.2328 27.8828 30.2507C27.8918 30.2686 27.9007 30.2865 27.9097 30.2865C27.9187 30.2865 27.9276 30.2955 27.9455 30.2955H27.9724C27.9814 30.2955 27.9903 30.2955 27.9903 30.2955C27.9993 30.2955 28.0083 30.2955 28.0172 30.2955H28.1068H28.5996C28.6175 30.2955 28.6355 30.2955 28.6534 30.2955C28.6713 30.2955 28.6892 30.2955 28.7071 30.2955C28.7251 30.2955 28.743 30.2955 28.7609 30.3045C28.7788 30.3045 28.7878 30.3134 28.7967 30.3134C28.8057 30.3134 28.8057 30.3224 28.8057 30.3403C28.8057 30.3493 28.8147 30.3672 28.8147 30.3761C28.8147 30.3941 28.8147 30.403 28.8147 30.4209C28.8147 30.4389 28.8147 30.4478 28.8057 30.4568C28.8057 30.4747 28.7967 30.4837 28.7788 30.4926C28.7788 30.4926 28.7699 30.5016 28.7609 30.5016C28.7519 30.5016 28.7519 30.5016 28.743 30.5016H28.7251C28.7161 30.5016 28.7071 30.5016 28.6982 30.5016C28.6892 30.5016 28.6803 30.5016 28.6713 30.5016H28.5817H28.0531C28.0351 30.5016 28.0172 30.5016 27.9903 30.5016C27.9724 30.5016 27.9545 30.5016 27.9366 30.5016C27.9187 30.5016 27.9007 30.5105 27.8918 30.5195C27.8828 30.5285 27.8739 30.5374 27.8649 30.5553C27.8649 30.5643 27.8559 30.5733 27.8649 30.5912C27.8649 30.6091 27.8649 30.6181 27.8649 30.627V30.7704V31.0123C27.8649 31.0392 27.8649 31.0571 27.8649 31.075C27.8649 31.093 27.8739 31.1109 27.8828 31.1198C27.8918 31.1288 27.9097 31.1288 27.9187 31.1378C27.9366 31.1378 27.9545 31.1378 27.9724 31.1378H28.1337H28.5996H28.743C28.7609 31.1378 28.7699 31.1378 28.7788 31.1378C28.7878 31.1378 28.8057 31.1378 28.8147 31.1378C28.8326 31.1467 28.8505 31.1557 28.8505 31.1647C28.8505 31.1736 28.8595 31.1826 28.8595 31.1915C28.8595 31.2005 28.8595 31.2184 28.8595 31.2274C28.8595 31.2363 28.8595 31.2543 28.8595 31.2632C28.8595 31.2722 28.8595 31.2811 28.8505 31.2901C28.8415 31.308 28.8326 31.317 28.8236 31.317C28.8147 31.3259 28.7967 31.3259 28.7878 31.3259C28.7699 31.3259 28.7519 31.3259 28.743 31.3259H28.5638H27.8918H27.7126C27.6857 31.3259 27.6678 31.3259 27.6499 31.3259C27.6319 31.3259 27.623 31.317 27.614 31.2991C27.6051 31.2901 27.6051 31.2722 27.6051 31.2632C27.6051 31.2453 27.6051 31.2363 27.6051 31.2184V31.0392V30.3672V29.8027V29.6503C27.6051 29.6324 27.6051 29.6235 27.6051 29.6055C27.6051 29.5876 27.6051 29.5787 27.614 29.5697C27.623 29.5607 27.6319 29.5518 27.6499 29.5428H27.6588C27.7215 29.5249 27.7215 29.5249 27.7305 29.5249ZM24.2451 29.5339C24.272 29.5339 24.2989 29.5339 24.3347 29.5339C24.3705 29.5339 24.3885 29.5339 24.4064 29.5518C24.4243 29.5607 24.4333 29.5787 24.4422 29.5966C24.4512 29.6145 24.4512 29.6414 24.4601 29.6593C24.4691 29.6951 24.487 29.731 24.496 29.7579C24.5049 29.7937 24.5139 29.8296 24.5318 29.8564C24.5318 29.8654 24.5408 29.8744 24.5408 29.8833C24.5408 29.8923 24.5408 29.9012 24.5497 29.9102C24.5587 29.9371 24.5677 29.9729 24.5766 29.9998C24.5856 30.0267 24.5945 30.0625 24.6035 30.0984C24.6304 30.1701 24.6483 30.2328 24.6752 30.3045C24.7021 30.3672 24.72 30.4389 24.7469 30.5105C24.7558 30.5464 24.7648 30.5822 24.7827 30.6091C24.7917 30.645 24.8006 30.6808 24.8185 30.7077C24.8185 30.7166 24.8275 30.7256 24.8275 30.7346C24.8275 30.7435 24.8365 30.7525 24.8365 30.7614C24.8544 30.8062 24.8723 30.86 24.8902 30.9138C24.8992 30.9317 24.8992 30.9496 24.9081 30.9675C24.9171 30.9854 24.9171 31.0034 24.935 31.0123C24.935 31.0123 24.944 31.0213 24.9529 31.0302C24.9709 31.0302 24.9888 31.0213 24.9888 31.0034C24.9977 30.9854 24.9977 30.9765 25.0067 30.9586C25.0246 30.9138 25.0425 30.869 25.0515 30.8242C25.0605 30.7794 25.0784 30.7346 25.0963 30.6898C25.1053 30.6629 25.1142 30.636 25.1232 30.6091C25.1321 30.5822 25.1411 30.5553 25.1501 30.5285C25.159 30.5105 25.168 30.4837 25.168 30.4657C25.1769 30.4478 25.1769 30.4209 25.1859 30.403C25.2128 30.3313 25.2307 30.2597 25.2576 30.188C25.2755 30.1163 25.3024 30.0446 25.3293 29.9729C25.3293 29.964 25.3382 29.964 25.3382 29.955C25.3382 29.946 25.3382 29.946 25.3472 29.9371C25.3561 29.9102 25.3651 29.8833 25.3741 29.8564C25.383 29.8296 25.392 29.8027 25.4009 29.7758C25.4099 29.7489 25.4188 29.722 25.4278 29.6952C25.4368 29.6683 25.4457 29.6414 25.4547 29.6145C25.4636 29.5966 25.4636 29.5876 25.4726 29.5697C25.4816 29.5518 25.4905 29.5428 25.4995 29.5339C25.5084 29.5249 25.5264 29.5249 25.5443 29.5249C25.5622 29.5249 25.5801 29.5249 25.598 29.5249H25.6518C25.6697 29.5249 25.6787 29.5339 25.6876 29.5339C25.6966 29.5339 25.7056 29.5428 25.7056 29.5607V29.5697V29.5787C25.7056 29.5966 25.6966 29.6145 25.6876 29.6235C25.6787 29.6414 25.6787 29.6503 25.6697 29.6683C25.6608 29.6862 25.6608 29.6952 25.6518 29.7131C25.6518 29.731 25.6428 29.74 25.6339 29.7579C25.6249 29.7848 25.616 29.8027 25.607 29.8296C25.598 29.8564 25.5891 29.8833 25.5801 29.9012C25.5801 29.9102 25.5712 29.9102 25.5712 29.9192C25.5712 29.9281 25.5712 29.9281 25.5622 29.9371C25.5443 29.964 25.5353 29.9998 25.5264 30.0267C25.5174 30.0625 25.5084 30.0894 25.4905 30.1163C25.4905 30.1252 25.4816 30.1252 25.4816 30.1342C25.4816 30.1432 25.4816 30.1432 25.4726 30.1521C25.4636 30.17 25.4547 30.1969 25.4457 30.2149C25.4368 30.2417 25.4278 30.2597 25.4189 30.2776C25.4189 30.2865 25.4099 30.2865 25.4099 30.2955C25.4099 30.3045 25.4099 30.3045 25.4009 30.3134C25.3741 30.3761 25.3561 30.4389 25.3293 30.5105C25.3113 30.5733 25.2845 30.645 25.2576 30.7077L25.2486 30.7346C25.2397 30.7525 25.2397 30.7704 25.2307 30.7883C25.2217 30.8062 25.2217 30.8242 25.2128 30.8421C25.2038 30.86 25.1949 30.8869 25.1859 30.9048C25.1769 30.9227 25.168 30.9496 25.159 30.9675C25.159 30.9765 25.1501 30.9854 25.1501 30.9944C25.1501 31.0034 25.1411 31.0123 25.1411 31.0213C25.1321 31.0482 25.1232 31.0751 25.1142 31.1019C25.1053 31.1288 25.0963 31.1557 25.0873 31.1736C25.0784 31.1915 25.0694 31.2184 25.0605 31.2453C25.0515 31.2722 25.0425 31.2901 25.0246 31.2991C25.0157 31.2991 25.0067 31.308 24.9977 31.308C24.9888 31.308 24.9798 31.308 24.9709 31.317H24.8992C24.8813 31.317 24.8544 31.317 24.8365 31.317C24.8096 31.317 24.7917 31.317 24.7827 31.308C24.7648 31.2991 24.7558 31.2901 24.7558 31.2722C24.7469 31.2543 24.7469 31.2363 24.7379 31.2184C24.7289 31.1915 24.72 31.1647 24.711 31.1378C24.7021 31.1109 24.6931 31.084 24.6841 31.0571C24.6841 31.0482 24.6752 31.0482 24.6752 31.0392C24.6752 31.0302 24.6752 31.0302 24.6662 31.0213C24.6573 30.9854 24.6393 30.9496 24.6304 30.9227C24.6214 30.8869 24.6035 30.851 24.5945 30.8242C24.5945 30.8152 24.5856 30.8062 24.5856 30.7973C24.5856 30.7883 24.5856 30.7883 24.5766 30.7794C24.5677 30.7525 24.5587 30.7346 24.5497 30.7077C24.5408 30.6808 24.5318 30.6629 24.5229 30.636C24.5229 30.627 24.5139 30.6181 24.5139 30.6181C24.5139 30.6091 24.5139 30.6001 24.5049 30.6001C24.496 30.5822 24.487 30.5553 24.4781 30.5374C24.4691 30.5105 24.4601 30.4926 24.4512 30.4657C24.4422 30.4478 24.4333 30.4299 24.4333 30.412C24.4243 30.3941 24.4243 30.3761 24.4153 30.3582C24.3974 30.3134 24.3795 30.2597 24.3616 30.2149C24.3437 30.1611 24.3257 30.1163 24.3078 30.0715C24.2989 30.0536 24.2989 30.0446 24.2899 30.0267C24.2899 30.0088 24.2809 29.9998 24.272 29.9819C24.263 29.9729 24.263 29.964 24.263 29.946C24.263 29.9371 24.2541 29.9281 24.2541 29.9102C24.2361 29.8744 24.2272 29.8296 24.2093 29.7937C24.2003 29.7489 24.1824 29.7131 24.1645 29.6772C24.1645 29.6683 24.1555 29.6503 24.1555 29.6414C24.1555 29.6324 24.1465 29.6145 24.1465 29.6055C24.1376 29.5876 24.1376 29.5787 24.1465 29.5607C24.1555 29.5518 24.1645 29.5428 24.1824 29.5339H24.1913C24.2361 29.5339 24.2361 29.5339 24.2451 29.5339ZM22.0499 30.5105C22.0499 30.4926 22.0589 30.4747 22.0589 30.4568C22.0589 30.4389 22.0589 30.4209 22.0589 30.403C22.0589 30.3941 22.0589 30.3761 22.0589 30.3672C22.0589 30.3582 22.0589 30.3403 22.0589 30.3313C22.0589 30.3224 22.0589 30.3224 22.0589 30.3134C22.0589 30.3045 22.0589 30.3045 22.0589 30.2955C22.0589 30.2776 22.0499 30.2597 22.0499 30.2417C22.0499 30.2238 22.0499 30.2059 22.041 30.188C22.041 30.1701 22.032 30.1611 22.032 30.1521C22.032 30.1432 22.023 30.1252 22.023 30.1163C22.0051 30.0536 21.9782 29.9998 21.9514 29.955C21.9066 29.8833 21.8349 29.8206 21.7453 29.7848C21.7274 29.7758 21.7184 29.7668 21.7005 29.7668C21.6826 29.7668 21.6646 29.7579 21.6467 29.7489C21.6288 29.74 21.6109 29.74 21.593 29.74C21.575 29.74 21.5571 29.74 21.5392 29.731H21.4854C21.4765 29.731 21.4765 29.731 21.4675 29.731C21.4586 29.731 21.4586 29.731 21.4496 29.731H21.145H21.136C21.1271 29.731 21.1271 29.731 21.1271 29.731C21.1181 29.731 21.1091 29.74 21.1002 29.74C21.0912 29.74 21.0912 29.7489 21.0823 29.7579C21.0823 29.7668 21.0733 29.7758 21.0733 29.7937V29.8116C21.0733 29.8206 21.0733 29.8296 21.0733 29.8385C21.0733 29.8475 21.0733 29.8564 21.0733 29.8654V31.0123C21.0733 31.0213 21.0733 31.0302 21.0733 31.0392C21.0733 31.0482 21.0733 31.0571 21.0733 31.0571V31.075C21.0733 31.093 21.0823 31.1019 21.0823 31.1109C21.0912 31.1288 21.1181 31.1378 21.1539 31.1378C21.1898 31.1378 21.2256 31.1378 21.2615 31.1378H21.4048C21.4138 31.1378 21.4317 31.1378 21.4406 31.1378C21.4496 31.1378 21.4675 31.1378 21.4765 31.1378H21.5034C21.5123 31.1378 21.5213 31.1378 21.5302 31.1378C21.5392 31.1378 21.5482 31.1378 21.5571 31.1378C21.5661 31.1378 21.575 31.1288 21.584 31.1288C21.593 31.1288 21.6019 31.1288 21.6198 31.1198C21.6378 31.1109 21.6557 31.1109 21.6736 31.1019C21.6915 31.093 21.7094 31.093 21.7274 31.084C21.7901 31.0571 21.8438 31.0213 21.8886 30.9765C21.9334 30.9317 21.9693 30.8779 21.9962 30.8152C22.0051 30.7973 22.0141 30.7794 22.0141 30.7525C22.023 30.7346 22.023 30.7077 22.032 30.6898C22.041 30.6718 22.041 30.6539 22.041 30.627C22.041 30.6091 22.0499 30.5822 22.0499 30.5643C22.0499 30.5553 22.0499 30.5464 22.0499 30.5464C22.0499 30.5195 22.0499 30.5195 22.0499 30.5105ZM22.2918 30.3761C22.2918 30.3941 22.2918 30.403 22.2918 30.4209C22.2918 30.4389 22.2918 30.4478 22.2918 30.4657V30.4926C22.2918 30.5016 22.2918 30.5016 22.2918 30.5105C22.2918 30.5195 22.2918 30.5195 22.2918 30.5285C22.2918 30.5374 22.2918 30.5464 22.2918 30.5553C22.2918 30.5643 22.2918 30.5733 22.2918 30.5822C22.2829 30.6091 22.2829 30.627 22.2829 30.6539C22.2829 30.6808 22.2739 30.7077 22.265 30.7256C22.256 30.7435 22.256 30.7704 22.247 30.7883C22.2381 30.8062 22.2381 30.8331 22.2291 30.851C22.2022 30.9227 22.1664 30.9854 22.1216 31.0482C22.0768 31.1019 22.023 31.1557 21.9603 31.1915C21.9245 31.2095 21.8976 31.2274 21.8618 31.2453C21.8259 31.2632 21.7901 31.2722 21.7453 31.2901C21.7274 31.2991 21.7094 31.2991 21.6826 31.308C21.6646 31.308 21.6378 31.317 21.6198 31.317C21.6019 31.317 21.584 31.3259 21.5661 31.3259C21.5482 31.3259 21.5302 31.3259 21.5123 31.3349H21.4765C21.4675 31.3349 21.4675 31.3349 21.4586 31.3349C21.4496 31.3349 21.4406 31.3349 21.4406 31.3349H20.9389C20.912 31.3349 20.8941 31.3349 20.8762 31.3349C20.8583 31.3349 20.8403 31.3259 20.8403 31.2991C20.8314 31.2901 20.8314 31.2632 20.8314 31.2453C20.8314 31.2184 20.8314 31.2005 20.8314 31.1736V29.6862C20.8314 29.6683 20.8314 29.6414 20.8314 29.6235C20.8314 29.5966 20.8314 29.5787 20.8403 29.5697C20.8493 29.5607 20.8583 29.5518 20.8762 29.5428H20.8851H20.8941H21.4406C21.4496 29.5428 21.4586 29.5428 21.4675 29.5428C21.4765 29.5428 21.4854 29.5428 21.4854 29.5428C21.4944 29.5428 21.5034 29.5428 21.5123 29.5428C21.5213 29.5428 21.5302 29.5428 21.5392 29.5428C21.5482 29.5428 21.5571 29.5428 21.5661 29.5428C21.575 29.5428 21.584 29.5428 21.593 29.5428C21.6019 29.5428 21.6109 29.5428 21.6198 29.5428C21.6288 29.5428 21.6378 29.5428 21.6467 29.5428C21.6646 29.5428 21.6826 29.5518 21.7005 29.5518C21.7184 29.5518 21.7363 29.5607 21.7542 29.5607C21.7901 29.5697 21.8259 29.5876 21.8618 29.5966C21.8976 29.6055 21.9245 29.6235 21.9514 29.6414C21.9782 29.6503 21.9962 29.6683 22.0141 29.6772C22.023 29.6772 22.023 29.6862 22.032 29.6862C22.041 29.6862 22.041 29.6952 22.0499 29.6952C22.0589 29.7041 22.0678 29.7131 22.0768 29.722C22.0858 29.731 22.0947 29.74 22.1037 29.7489C22.1126 29.7579 22.1216 29.7668 22.1216 29.7668C22.1306 29.7758 22.1395 29.7848 22.1395 29.7937C22.1485 29.8027 22.1574 29.8116 22.1574 29.8206C22.1664 29.8296 22.1754 29.8385 22.1754 29.8475C22.1843 29.8564 22.1843 29.8654 22.1933 29.8833C22.1933 29.8923 22.2022 29.8923 22.2022 29.9012C22.2022 29.9102 22.2022 29.9102 22.2112 29.9192C22.2202 29.9371 22.2202 29.946 22.2291 29.955C22.2381 29.964 22.2381 29.9819 22.247 29.9908C22.256 30.0088 22.256 30.0267 22.265 30.0446C22.265 30.0625 22.2739 30.0804 22.2829 30.0984C22.2829 30.1073 22.2918 30.1163 22.2918 30.1252C22.2918 30.1342 22.2918 30.1432 22.3008 30.1521C22.3098 30.179 22.3098 30.2149 22.3187 30.2507C22.2918 30.3134 22.2918 30.3493 22.2918 30.3761ZM18.2868 30.5733C18.3047 30.5643 18.3136 30.5553 18.3136 30.5464C18.3136 30.5374 18.3226 30.5195 18.3136 30.5105C18.3136 30.4926 18.3047 30.4837 18.3047 30.4657C18.2957 30.4478 18.2957 30.4389 18.2868 30.4299C18.2868 30.4209 18.2778 30.4209 18.2778 30.412C18.2778 30.403 18.2778 30.403 18.2688 30.3941C18.2599 30.3761 18.2599 30.3672 18.2509 30.3493C18.2509 30.3313 18.242 30.3224 18.233 30.3045C18.2061 30.2417 18.1882 30.179 18.1703 30.1163C18.1524 30.0536 18.1255 29.9908 18.1076 29.9281C18.0986 29.9102 18.0896 29.8923 18.0896 29.8744C18.0807 29.8564 18.0807 29.8385 18.0717 29.8206C18.0717 29.8116 18.0628 29.8027 18.0628 29.7937C18.0628 29.7848 18.0538 29.7848 18.0359 29.7848L18.0269 29.7937C18.0269 29.7937 18.018 29.7937 18.018 29.8027C18.009 29.8116 18.009 29.8206 18 29.8296C18 29.8385 17.9911 29.8475 17.9911 29.8564C17.9821 29.8744 17.9732 29.8923 17.9732 29.9102C17.9642 29.9281 17.9642 29.946 17.9552 29.964C17.9284 30.0267 17.9015 30.0984 17.8836 30.1611C17.8656 30.2238 17.8388 30.2955 17.8119 30.3582C17.8119 30.3672 17.8029 30.3761 17.8029 30.3851C17.8029 30.3941 17.794 30.403 17.794 30.412C17.785 30.4299 17.785 30.4389 17.776 30.4568C17.7671 30.4657 17.7671 30.4837 17.7671 30.4926C17.7671 30.5016 17.7581 30.5105 17.7671 30.5195C17.7671 30.5285 17.7671 30.5374 17.776 30.5464C17.785 30.5643 17.8029 30.5643 17.8298 30.5643C17.8567 30.5643 17.8836 30.5643 17.9015 30.5643H18.1703C18.1882 30.5643 18.2151 30.5643 18.242 30.5643C18.2509 30.5822 18.2688 30.5822 18.2868 30.5733ZM18.8244 31.1915C18.8244 31.2005 18.8333 31.2095 18.8333 31.2184C18.8423 31.2274 18.8423 31.2453 18.8423 31.2543C18.8423 31.2632 18.8423 31.2811 18.8423 31.2901C18.8423 31.2991 18.8333 31.308 18.8244 31.317C18.8154 31.317 18.8064 31.3259 18.7975 31.3259C18.7885 31.3259 18.7706 31.3259 18.7616 31.3259C18.7348 31.3259 18.7168 31.3259 18.69 31.3259C18.6631 31.3259 18.6452 31.3259 18.6272 31.317C18.6093 31.308 18.6004 31.2901 18.5914 31.2632C18.5824 31.2363 18.5735 31.2184 18.5645 31.1915C18.5466 31.1467 18.5287 31.1019 18.5108 31.0571C18.4928 31.0123 18.4749 30.9675 18.457 30.9227C18.448 30.9048 18.448 30.8958 18.4391 30.8779C18.4391 30.86 18.4301 30.851 18.4212 30.8421C18.4122 30.8331 18.4032 30.8242 18.3943 30.8152C18.3853 30.8062 18.3674 30.7973 18.3584 30.7973C18.3495 30.7973 18.3405 30.7973 18.3316 30.7973C18.3226 30.7973 18.3136 30.7973 18.2957 30.7973H17.8298C17.8119 30.7973 17.794 30.7973 17.776 30.7973C17.7581 30.7973 17.7402 30.7973 17.7223 30.7973C17.7044 30.7973 17.6864 30.7973 17.6775 30.8062C17.6596 30.8062 17.6506 30.8152 17.6416 30.8242C17.6237 30.8421 17.6148 30.86 17.6148 30.8779C17.6058 30.8958 17.6058 30.9227 17.5968 30.9406C17.5789 30.9765 17.561 31.0213 17.552 31.0571C17.5341 31.1019 17.5252 31.1378 17.5072 31.1736C17.5072 31.1826 17.4983 31.1915 17.4983 31.2095C17.4983 31.2184 17.4893 31.2363 17.4804 31.2453C17.4714 31.2543 17.4714 31.2722 17.4624 31.2811C17.4535 31.2901 17.4535 31.2991 17.4445 31.308C17.4266 31.317 17.4087 31.3259 17.3908 31.3259C17.3639 31.3259 17.346 31.3259 17.3191 31.3259C17.3101 31.3259 17.2922 31.3259 17.2833 31.3259C17.2743 31.3259 17.2564 31.317 17.2474 31.317C17.2385 31.308 17.2385 31.308 17.2295 31.2901C17.2295 31.2811 17.2295 31.2722 17.2295 31.2543C17.2295 31.2453 17.2385 31.2363 17.2385 31.2184C17.2385 31.2095 17.2474 31.2005 17.2474 31.1915C17.2743 31.1378 17.2922 31.084 17.3101 31.0302C17.3281 30.9765 17.346 30.9227 17.3728 30.869C17.3908 30.8331 17.3997 30.7973 17.4176 30.7614C17.4356 30.7256 17.4445 30.6898 17.4624 30.6539C17.5162 30.5374 17.561 30.412 17.6058 30.2865C17.6506 30.1611 17.6954 30.0356 17.7492 29.9192C17.7671 29.8744 17.785 29.8296 17.8029 29.7848C17.8208 29.74 17.8388 29.6952 17.8567 29.6503C17.8656 29.6324 17.8746 29.6145 17.8836 29.5876C17.8925 29.5607 17.9015 29.5518 17.9194 29.5428C17.9284 29.5339 17.9373 29.5339 17.9552 29.5249H17.9642H17.9732C18 29.5249 18.0359 29.5249 18.0807 29.5249C18.1255 29.5249 18.1524 29.5339 18.1703 29.5428C18.1792 29.5518 18.1972 29.5697 18.2061 29.5876C18.2151 29.6145 18.224 29.6324 18.233 29.6503C18.2509 29.6862 18.2688 29.731 18.2778 29.7668C18.2957 29.8027 18.3047 29.8475 18.3226 29.8833C18.3405 29.9192 18.3495 29.955 18.3584 29.9908C18.3674 30.0267 18.3853 30.0625 18.4032 30.0984C18.457 30.2238 18.5018 30.3403 18.5466 30.4657C18.5914 30.5912 18.6452 30.7166 18.69 30.8331C18.6989 30.851 18.6989 30.86 18.7079 30.8779C18.7079 30.8958 18.7168 30.9048 18.7258 30.9227C18.7437 30.9675 18.7616 31.0123 18.7796 31.0571C18.7885 31.1019 18.8064 31.1467 18.8244 31.1915Z" fill="#2B2929"/>
<path d="M50.2201 29.489C50.3365 29.489 50.4351 29.4979 50.5247 29.5248C50.6143 29.5517 50.686 29.5875 50.7576 29.6323C50.7845 29.6503 50.8114 29.6771 50.8383 29.704L50.8472 29.713L50.8562 29.7219C50.8652 29.7399 50.8741 29.7488 50.8831 29.7578C50.892 29.7667 50.901 29.7847 50.91 29.7936C50.9279 29.8205 50.9458 29.8563 50.9548 29.8832C50.9727 29.9191 50.9816 29.9459 50.9906 29.9818C50.9996 29.9997 50.9996 30.0176 50.9996 30.0355C50.9996 30.0535 50.9906 30.0714 50.9816 30.0714C50.9816 30.0714 50.9727 30.0804 50.9637 30.0804C50.9548 30.0804 50.9548 30.0804 50.9458 30.0804H50.9279C50.9189 30.0804 50.91 30.0893 50.8831 30.0893C50.8652 30.0893 50.8472 30.0893 50.8383 30.0804C50.8293 30.0804 50.8293 30.0804 50.8204 30.0804C50.8114 30.0804 50.8114 30.0804 50.8024 30.0804C50.7935 30.0804 50.7845 30.0714 50.7756 30.0714C50.7666 30.0624 50.7576 30.0535 50.7576 30.0355C50.7576 30.0176 50.7487 30.0087 50.7397 29.9907C50.7308 29.9728 50.7218 29.9459 50.7128 29.928C50.7039 29.9101 50.686 29.8922 50.677 29.8743L50.668 29.8653C50.6591 29.8653 50.6591 29.8563 50.6591 29.8474C50.6412 29.8295 50.6322 29.8205 50.6143 29.8026C50.6053 29.7936 50.5964 29.7936 50.5874 29.7847C50.5784 29.7757 50.5695 29.7757 50.5605 29.7667C50.5336 29.7578 50.5157 29.7399 50.4888 29.7309C50.462 29.7219 50.4351 29.713 50.4082 29.704C50.3903 29.704 50.3813 29.6951 50.3634 29.6951C50.3455 29.6951 50.3365 29.6951 50.3186 29.6861C50.3097 29.6861 50.3097 29.6861 50.3007 29.6861C50.2917 29.6861 50.2917 29.6861 50.2828 29.6861H50.2559C50.2469 29.6861 50.229 29.6861 50.2201 29.6861C50.2111 29.6861 50.1932 29.6861 50.1842 29.6861H50.1753C50.1663 29.6861 50.1663 29.6861 50.1663 29.6861C50.1573 29.6861 50.1484 29.6861 50.1305 29.6951C50.1215 29.6951 50.1125 29.6951 50.0946 29.704C50.0319 29.7219 49.9871 29.7399 49.9423 29.7667C49.8706 29.8115 49.8169 29.8653 49.7721 29.9191C49.7273 29.9818 49.6914 30.0535 49.6645 30.1341C49.6556 30.152 49.6556 30.17 49.6466 30.1879C49.6466 30.2058 49.6377 30.2237 49.6377 30.2506C49.6377 30.2596 49.6287 30.2685 49.6377 30.2775C49.6377 30.2864 49.6377 30.2954 49.6377 30.3044C49.6377 30.3133 49.6287 30.3312 49.6377 30.3402C49.6377 30.3492 49.6377 30.3671 49.6377 30.376V30.4029C49.6377 30.4119 49.6377 30.4298 49.6377 30.4477C49.6377 30.4656 49.6377 30.4836 49.6377 30.4836V30.5104C49.6377 30.5104 49.6377 30.5194 49.6377 30.5284C49.6377 30.5373 49.6377 30.5373 49.6377 30.5463C49.6377 30.5553 49.6377 30.5732 49.6377 30.5821C49.6377 30.5911 49.6377 30.6001 49.6377 30.618C49.6377 30.6269 49.6466 30.6449 49.6466 30.6538C49.6466 30.6628 49.6556 30.6807 49.6556 30.6897C49.6645 30.7165 49.6735 30.7434 49.6825 30.7613C49.6914 30.7882 49.7004 30.8061 49.7093 30.833C49.7183 30.8509 49.7273 30.8689 49.7452 30.8868C49.7541 30.9047 49.7721 30.9226 49.781 30.9405C49.8437 31.0212 49.9244 31.0839 50.0229 31.1287C50.0319 31.1377 50.0498 31.1377 50.0588 31.1377C50.0677 31.1377 50.0857 31.1466 50.0946 31.1466C50.1305 31.1556 50.1842 31.1646 50.238 31.1646C50.2469 31.1646 50.2649 31.1646 50.2738 31.1646C50.2828 31.1646 50.2917 31.1646 50.3097 31.1646C50.3186 31.1646 50.3276 31.1646 50.3365 31.1646C50.3455 31.1646 50.3545 31.1646 50.3634 31.1646C50.3903 31.1556 50.4082 31.1556 50.4261 31.1466C50.444 31.1466 50.4709 31.1377 50.4888 31.1287C50.6412 31.066 50.7487 30.9585 50.8024 30.7972C50.8024 30.7793 50.8114 30.7703 50.8114 30.7613C50.8114 30.7434 50.8204 30.7345 50.8204 30.7165C50.8293 30.6986 50.8293 30.6717 50.8293 30.6538C50.8293 30.6269 50.8204 30.609 50.8024 30.6001C50.7935 30.5911 50.7666 30.5911 50.7487 30.5911C50.7218 30.5911 50.7039 30.5911 50.677 30.5911H50.3993C50.3813 30.5911 50.3634 30.5911 50.3365 30.5911C50.3186 30.5911 50.3007 30.5911 50.2828 30.5821C50.2649 30.5732 50.2649 30.5642 50.2559 30.5553C50.2559 30.5463 50.2469 30.5373 50.2469 30.5284C50.2469 30.5194 50.2469 30.5015 50.2469 30.4925C50.2469 30.4836 50.2469 30.4656 50.2469 30.4567C50.2469 30.4477 50.2559 30.4388 50.2559 30.4298C50.2649 30.4208 50.2738 30.4119 50.2917 30.4029C50.3007 30.4029 50.3097 30.394 50.3186 30.394C50.3276 30.394 50.3455 30.394 50.3545 30.394H50.4709H50.8562C50.8741 30.394 50.892 30.394 50.91 30.394C50.9279 30.394 50.9458 30.394 50.9637 30.394C50.9816 30.394 50.9906 30.4029 51.0085 30.4029C51.0175 30.4119 51.0264 30.4208 51.0354 30.4388C51.0354 30.4477 51.0444 30.4567 51.0354 30.4746C51.0354 30.4925 51.0354 30.5015 51.0354 30.5104V30.6449V31.1108V31.2273C51.0354 31.2362 51.0354 31.2542 51.0354 31.2631C51.0354 31.2721 51.0354 31.281 51.0264 31.29C51.0175 31.3079 51.0085 31.3169 50.9996 31.3169C50.9906 31.3169 50.9816 31.3258 50.9637 31.3258C50.9368 31.3258 50.9189 31.3258 50.91 31.3169C50.901 31.3079 50.892 31.3079 50.8831 31.29C50.8741 31.281 50.8741 31.2721 50.8652 31.2542C50.8652 31.2452 50.8562 31.2273 50.8472 31.2094C50.8472 31.2004 50.8383 31.1825 50.8293 31.1646C50.8204 31.1466 50.8114 31.1377 50.7935 31.1466C50.7845 31.1466 50.7756 31.1556 50.7666 31.1646C50.7576 31.1735 50.7487 31.1825 50.7397 31.1825C50.7308 31.1914 50.7129 31.2004 50.7039 31.2183C50.6949 31.2273 50.677 31.2362 50.668 31.2452C50.6322 31.2721 50.5964 31.29 50.5605 31.299C50.5247 31.3169 50.4799 31.3258 50.4351 31.3438C50.4261 31.3438 50.4082 31.3527 50.3993 31.3527C50.3903 31.3527 50.3724 31.3527 50.3634 31.3617C50.3545 31.3617 50.3365 31.3617 50.3365 31.3617C50.3276 31.3617 50.3276 31.3617 50.3186 31.3617C50.3097 31.3617 50.3097 31.3617 50.3007 31.3617H50.2738C50.2649 31.3617 50.2559 31.3617 50.2469 31.3617C50.238 31.3617 50.229 31.3617 50.2201 31.3617H50.1753C50.1573 31.3617 50.1394 31.3527 50.1215 31.3527C50.1036 31.3527 50.0857 31.3527 50.0767 31.3438C50.0498 31.3348 50.014 31.3258 49.9871 31.3169C49.9602 31.3079 49.9333 31.299 49.9065 31.29C49.8079 31.2452 49.7273 31.1914 49.6556 31.1108C49.5839 31.0391 49.5212 30.9495 49.4853 30.8509C49.4764 30.833 49.4674 30.8061 49.4585 30.7882C49.4495 30.7703 49.4405 30.7434 49.4316 30.7165C49.4316 30.7076 49.4316 30.7076 49.4316 30.6986C49.4316 30.6897 49.4316 30.6897 49.4226 30.6807C49.4137 30.6628 49.4137 30.6449 49.4137 30.6269C49.4137 30.609 49.4047 30.5911 49.4047 30.5642C49.4047 30.5553 49.4047 30.5463 49.4047 30.5463C49.4047 30.5373 49.4047 30.5373 49.4047 30.5284V30.5015C49.4047 30.4925 49.3957 30.4746 49.3957 30.4567C49.3957 30.4298 49.3957 30.4208 49.4047 30.4029V30.394C49.4047 30.385 49.4047 30.376 49.4047 30.3671C49.4047 30.3581 49.4047 30.3492 49.4047 30.3402C49.4047 30.3312 49.4047 30.3223 49.4047 30.3133C49.4047 30.3044 49.4047 30.2954 49.4047 30.2864C49.4137 30.2685 49.4137 30.2506 49.4137 30.2237C49.4137 30.2058 49.4226 30.1879 49.4226 30.161C49.4405 30.1072 49.4585 30.0535 49.4764 29.9997C49.4943 29.9459 49.5212 29.9011 49.5481 29.8563C49.6018 29.7757 49.6556 29.713 49.7273 29.6503C49.7989 29.5965 49.8796 29.5517 49.9781 29.5158C49.9961 29.5069 50.014 29.5069 50.0319 29.4979C50.0498 29.4979 50.0677 29.489 50.0857 29.489C50.0946 29.489 50.1036 29.48 50.1125 29.48C50.1215 29.48 50.1305 29.48 50.1394 29.48C50.1573 29.48 50.1663 29.48 50.1842 29.48C50.1932 29.489 50.2111 29.489 50.2201 29.489ZM45.9731 29.5248C45.9999 29.5248 46.0358 29.5248 46.0716 29.5248C46.1075 29.5248 46.1343 29.5338 46.1523 29.5427C46.1702 29.5517 46.1791 29.5696 46.1881 29.5875C46.1971 29.6055 46.215 29.6234 46.2239 29.6413C46.2419 29.6771 46.2687 29.713 46.2866 29.7399C46.3135 29.7757 46.3315 29.8115 46.3494 29.8474C46.3583 29.8653 46.3763 29.8832 46.3852 29.9011C46.3942 29.9191 46.4121 29.937 46.421 29.9549C46.4748 30.0355 46.5196 30.1162 46.5734 30.1968C46.6271 30.2775 46.6809 30.3581 46.7257 30.4388C46.7346 30.4656 46.7526 30.4836 46.7705 30.5015C46.7884 30.5194 46.7974 30.5463 46.8153 30.5642C46.8422 30.609 46.869 30.6538 46.9049 30.6986C46.9318 30.7434 46.9676 30.7882 46.9945 30.833C47.0034 30.842 47.0124 30.8599 47.0303 30.8778C47.0393 30.8957 47.0572 30.9047 47.0751 30.9047C47.0841 30.9047 47.0841 30.8957 47.0841 30.8957C47.093 30.8868 47.093 30.8689 47.093 30.8509C47.093 30.833 47.093 30.8151 47.093 30.7972V30.6001V29.8295V29.6771C47.093 29.6682 47.093 29.6503 47.093 29.6413C47.093 29.6234 47.093 29.6144 47.093 29.6055V29.5875C47.093 29.5786 47.102 29.5696 47.102 29.5696C47.102 29.5606 47.102 29.5607 47.111 29.5517C47.1199 29.5427 47.1378 29.5338 47.1558 29.5338C47.1737 29.5338 47.2006 29.5338 47.2185 29.5338C47.2274 29.5338 47.2364 29.5338 47.2543 29.5338C47.2633 29.5338 47.2722 29.5338 47.2812 29.5427C47.2991 29.5517 47.317 29.5696 47.317 29.5875C47.317 29.6055 47.317 29.6323 47.317 29.6592V29.937V30.9943V31.2094C47.317 31.2273 47.317 31.2452 47.317 31.2631C47.317 31.281 47.317 31.299 47.3081 31.3079C47.2991 31.3169 47.2902 31.3258 47.2812 31.3258C47.2722 31.3258 47.2633 31.3348 47.2454 31.3348H47.1826C47.1647 31.3348 47.1378 31.3348 47.1199 31.3348C47.102 31.3348 47.0841 31.3348 47.0662 31.3258C47.0482 31.3169 47.0393 31.3169 47.0303 31.299C47.0214 31.29 47.0124 31.2721 47.0034 31.2631C46.9855 31.2452 46.9766 31.2183 46.9586 31.2004C46.9407 31.1825 46.9318 31.1556 46.9138 31.1377C46.8511 31.0481 46.7974 30.9585 46.7346 30.8689C46.6719 30.7793 46.6182 30.6897 46.5554 30.6001C46.5196 30.5463 46.4927 30.5015 46.4569 30.4477C46.4211 30.4029 46.3942 30.3492 46.3583 30.2954C46.3046 30.2058 46.2419 30.1162 46.1881 30.0355C46.1791 30.0266 46.1791 30.0087 46.1702 29.9997C46.1612 29.9907 46.1523 29.9818 46.1433 29.9728C46.1433 29.9728 46.1343 29.9728 46.1343 29.9639H46.1254C46.1164 29.9639 46.1075 29.9728 46.1075 29.9818C46.1075 29.9907 46.1075 29.9997 46.0985 30.0087V30.0266C46.0985 30.0355 46.0985 30.0535 46.0985 30.0624C46.0985 30.0804 46.0985 30.0893 46.0985 30.1072V30.2775V31.075V31.1914C46.0985 31.2004 46.0985 31.2094 46.0985 31.2183C46.0985 31.2273 46.0985 31.2362 46.0985 31.2452V31.2631C46.0985 31.281 46.0895 31.29 46.0895 31.299C46.0895 31.3079 46.0806 31.3169 46.0716 31.3169C46.0627 31.3169 46.0537 31.3258 46.0447 31.3258H45.991C45.9641 31.3258 45.9462 31.3258 45.9283 31.3258C45.9103 31.3258 45.8924 31.3169 45.8924 31.299C45.8835 31.29 45.8835 31.2721 45.8835 31.2542C45.8835 31.2362 45.8835 31.2183 45.8835 31.2004V30.9943V29.9459V29.6771C45.8835 29.6592 45.8835 29.6323 45.8835 29.6144C45.8835 29.5875 45.8835 29.5696 45.8924 29.5607C45.9014 29.5517 45.9103 29.5427 45.9193 29.5338C45.9193 29.5338 45.9283 29.5338 45.9372 29.5338C45.9641 29.5248 45.9731 29.5248 45.9731 29.5248ZM43.5718 29.5338C43.5808 29.5338 43.5987 29.5338 43.6076 29.5338C43.6256 29.5338 43.6345 29.5338 43.6524 29.5338C43.6704 29.5338 43.6793 29.5338 43.6883 29.5427C43.6972 29.5427 43.7062 29.5517 43.7152 29.5607C43.7241 29.5696 43.7331 29.5875 43.7331 29.6055C43.7331 29.6234 43.7331 29.6503 43.7331 29.6682V29.9101V30.8778V31.1735C43.7331 31.1914 43.7331 31.2183 43.7331 31.2452C43.7331 31.2721 43.7331 31.29 43.7241 31.299C43.7152 31.3079 43.7062 31.3169 43.6972 31.3169C43.6883 31.3169 43.6793 31.3169 43.6614 31.3258H43.6166C43.5897 31.3258 43.5718 31.3258 43.5539 31.3258C43.536 31.3258 43.518 31.3169 43.5091 31.299C43.5001 31.29 43.5001 31.2721 43.5001 31.2542C43.5001 31.2362 43.5001 31.2183 43.5001 31.2004V31.0033V29.9459V29.6771C43.5001 29.6592 43.5001 29.6413 43.5001 29.6144C43.5001 29.5875 43.5001 29.5696 43.5091 29.5607C43.518 29.5517 43.527 29.5427 43.5449 29.5338H43.5539C43.5628 29.5338 43.5628 29.5338 43.5718 29.5338ZM40.6598 29.489C40.7584 29.489 40.839 29.489 40.9107 29.5158C40.9824 29.5338 41.0541 29.5607 41.1078 29.5965C41.1168 29.6055 41.1257 29.6055 41.1347 29.6144C41.1437 29.6234 41.1526 29.6234 41.1616 29.6323L41.1705 29.6413L41.1795 29.6503L41.1885 29.6592C41.1974 29.6592 41.1974 29.6682 41.1974 29.6771C41.2064 29.6861 41.2064 29.6951 41.2153 29.704C41.2243 29.713 41.2333 29.7219 41.2333 29.7309C41.2422 29.7399 41.2422 29.7488 41.2512 29.7578C41.2512 29.7667 41.2601 29.7757 41.2691 29.7847C41.287 29.8115 41.296 29.8384 41.3049 29.8653C41.3139 29.8922 41.3229 29.928 41.3318 29.9549C41.3318 29.9728 41.3408 29.9818 41.3318 29.9997C41.3318 30.0176 41.3318 30.0266 41.3229 30.0355C41.3139 30.0445 41.3049 30.0535 41.2781 30.0535C41.2601 30.0535 41.2422 30.0535 41.2243 30.0535C41.2153 30.0535 41.2064 30.0535 41.1974 30.0535C41.1885 30.0535 41.1885 30.0535 41.1795 30.0535C41.1705 30.0535 41.1616 30.0535 41.1616 30.0535C41.1526 30.0535 41.1526 30.0535 41.1437 30.0445C41.1437 30.0445 41.1347 30.0445 41.1347 30.0355L41.1257 30.0266C41.1168 30.0087 41.1078 29.9907 41.1078 29.9728C41.1078 29.9549 41.0989 29.928 41.0899 29.9191C41.063 29.8563 41.0182 29.8026 40.9734 29.7667C40.9376 29.7399 40.8928 29.7219 40.839 29.704C40.8301 29.704 40.8211 29.6951 40.8121 29.6951C40.8032 29.6951 40.7942 29.6951 40.7853 29.6861H40.7673C40.7584 29.6861 40.7405 29.6771 40.7315 29.6771C40.7225 29.6771 40.7046 29.6771 40.6867 29.6771C40.5971 29.6771 40.5254 29.6951 40.4717 29.7219C40.4358 29.7309 40.409 29.7578 40.3821 29.7757C40.3552 29.8026 40.3373 29.8295 40.3194 29.8563C40.3104 29.8653 40.3104 29.8832 40.3014 29.9011C40.3014 29.9191 40.2925 29.928 40.2925 29.9459C40.2925 29.9549 40.2835 29.9728 40.2925 29.9907C40.2925 30.0087 40.2925 30.0176 40.3014 30.0355C40.3104 30.0714 40.3283 30.1072 40.3462 30.1252C40.3642 30.1431 40.391 30.161 40.4179 30.1789C40.4538 30.2058 40.4985 30.2237 40.5433 30.2327C40.5881 30.2416 40.6329 30.2596 40.6867 30.2685C40.7046 30.2685 40.7136 30.2775 40.7315 30.2775C40.7494 30.2775 40.7584 30.2864 40.7763 30.2864C40.8032 30.2954 40.8211 30.2954 40.848 30.3044C40.8749 30.3044 40.9017 30.3133 40.9197 30.3223C40.9286 30.3223 40.9286 30.3223 40.9376 30.3223C40.9465 30.3223 40.9465 30.3223 40.9555 30.3223C40.9734 30.3223 40.9824 30.3312 41.0003 30.3312C41.0182 30.3312 41.0272 30.3402 41.0451 30.3492C41.0809 30.3581 41.1078 30.376 41.1437 30.385C41.1795 30.394 41.2064 30.4119 41.2333 30.4298C41.2691 30.4567 41.3049 30.4836 41.3318 30.5104C41.3587 30.5373 41.3856 30.5821 41.4035 30.618C41.4125 30.6359 41.4125 30.6449 41.4214 30.6628C41.4214 30.6807 41.4304 30.6897 41.4304 30.7076C41.4304 30.7165 41.4393 30.7255 41.4393 30.7345C41.4393 30.7434 41.4393 30.7524 41.4483 30.7703V30.7972V30.8241C41.4483 30.833 41.4483 30.842 41.4483 30.842C41.4483 30.8509 41.4483 30.8599 41.4483 30.8599C41.4483 30.8689 41.4393 30.8868 41.4393 30.9047C41.4393 30.9226 41.4393 30.9316 41.4304 30.9495C41.4214 30.9764 41.4125 31.0033 41.4035 31.0212C41.3945 31.0481 41.3766 31.066 41.3677 31.0839C41.3408 31.1287 41.3049 31.1646 41.2601 31.1914C41.2153 31.2183 41.1705 31.2452 41.1168 31.2721C41.0989 31.281 41.0809 31.281 41.072 31.29C41.0541 31.299 41.0361 31.299 41.0182 31.3079C41.0003 31.3169 40.9824 31.3169 40.9645 31.3258C40.9465 31.3258 40.9286 31.3348 40.9017 31.3348C40.8928 31.3348 40.8838 31.3348 40.8749 31.3348C40.8659 31.3348 40.8569 31.3348 40.848 31.3348C40.839 31.3348 40.8301 31.3348 40.8211 31.3348C40.8121 31.3348 40.8032 31.3348 40.7942 31.3348C40.7853 31.3348 40.7763 31.3348 40.7584 31.3348C40.7405 31.3348 40.7315 31.3348 40.7225 31.3348H40.6957C40.6777 31.3348 40.6598 31.3258 40.6419 31.3258C40.624 31.3258 40.6061 31.3258 40.5971 31.3169C40.5881 31.3169 40.5792 31.3169 40.5792 31.3169C40.5702 31.3169 40.5613 31.3169 40.5523 31.3169C40.5344 31.3169 40.5165 31.3079 40.4985 31.3079C40.4806 31.3079 40.4627 31.299 40.4538 31.29C40.3731 31.2631 40.3014 31.2273 40.2477 31.1825C40.1939 31.1377 40.1402 31.0839 40.1043 31.0212C40.0864 31.0033 40.0774 30.9764 40.0685 30.9495C40.0595 30.9226 40.0506 30.9047 40.0416 30.8778C40.0416 30.8689 40.0326 30.8599 40.0326 30.8509C40.0326 30.842 40.0326 30.833 40.0237 30.8241C40.0237 30.8061 40.0147 30.7882 40.0147 30.7703C40.0147 30.7524 40.0147 30.7345 40.0237 30.7255C40.0326 30.7165 40.0416 30.7076 40.0685 30.7076C40.0864 30.7076 40.1043 30.7076 40.1222 30.7076C40.1312 30.7076 40.1402 30.7076 40.1402 30.7076C40.1491 30.7076 40.1581 30.7076 40.1581 30.7076C40.167 30.7076 40.176 30.7076 40.176 30.7076C40.185 30.7076 40.185 30.7076 40.1939 30.7076C40.2029 30.7165 40.2118 30.7165 40.2208 30.7255C40.2298 30.7345 40.2298 30.7434 40.2298 30.7524C40.2298 30.7613 40.2298 30.7703 40.2387 30.7793C40.2387 30.7882 40.2477 30.8061 40.2477 30.8151C40.2477 30.8241 40.2566 30.842 40.2566 30.8509C40.2835 30.9226 40.3283 30.9764 40.3821 31.0212C40.409 31.0391 40.4448 31.057 40.4717 31.075C40.5075 31.0839 40.5433 31.1018 40.5792 31.1108C40.5881 31.1108 40.6061 31.1198 40.615 31.1198C40.6329 31.1198 40.6419 31.1198 40.6598 31.1287H40.6688C40.6777 31.1287 40.6777 31.1287 40.6867 31.1287C40.6957 31.1287 40.7046 31.1287 40.7136 31.1287C40.7225 31.1287 40.7315 31.1287 40.7405 31.1287C40.7494 31.1287 40.7584 31.1287 40.7673 31.1287C40.7763 31.1287 40.7942 31.1287 40.8032 31.1198H40.8211C40.8301 31.1198 40.839 31.1198 40.848 31.1198C40.8569 31.1198 40.8659 31.1198 40.8749 31.1198C40.8838 31.1198 40.8838 31.1198 40.8928 31.1198C40.8928 31.1198 40.9017 31.1198 40.9107 31.1198C40.9286 31.1198 40.9376 31.1108 40.9555 31.1108C40.9734 31.1108 40.9824 31.1018 41.0003 31.1018C41.0451 31.0839 41.0809 31.066 41.1168 31.0391C41.1526 31.0122 41.1795 30.9853 41.1974 30.9405C41.2064 30.9316 41.2064 30.9137 41.2064 30.9047C41.2064 30.8868 41.2153 30.8778 41.2153 30.8599C41.2153 30.8509 41.2243 30.833 41.2243 30.8151C41.2243 30.7972 41.2243 30.7793 41.2153 30.7703C41.2153 30.7613 41.2064 30.7524 41.2064 30.7524C41.2064 30.7434 41.2064 30.7434 41.1974 30.7345C41.1885 30.7076 41.1705 30.6807 41.1616 30.6628C41.1437 30.6449 41.1257 30.6269 41.0989 30.609C41.063 30.5821 41.0272 30.5642 40.9824 30.5463C40.9376 30.5284 40.8928 30.5194 40.848 30.5104C40.8032 30.5015 40.7494 30.4925 40.7046 30.4746C40.6509 30.4656 40.6061 30.4567 40.5613 30.4388C40.5344 30.4298 40.5075 30.4208 40.4806 30.4208C40.4537 30.4119 40.4269 30.4029 40.409 30.394H40.4C40.4 30.394 40.4 30.394 40.391 30.394C40.3731 30.385 40.3552 30.385 40.3373 30.376C40.3194 30.3671 40.3014 30.3581 40.2925 30.3492C40.2566 30.3223 40.2208 30.3044 40.185 30.2685C40.1491 30.2416 40.1312 30.2058 40.1133 30.161C40.1043 30.1431 40.0954 30.1252 40.0954 30.1162C40.0954 30.0983 40.0864 30.0804 40.0864 30.0624C40.0864 30.0535 40.0864 30.0535 40.0864 30.0445C40.0864 30.0355 40.0864 30.0355 40.0864 30.0266C40.0774 30.0087 40.0774 29.9818 40.0864 29.9459C40.0864 29.9191 40.0954 29.8922 40.0954 29.8743C40.1043 29.8563 40.1043 29.8384 40.1133 29.8205C40.1133 29.8026 40.1222 29.7847 40.1312 29.7757C40.1581 29.7219 40.185 29.6861 40.2208 29.6503C40.2566 29.6144 40.3014 29.5875 40.3462 29.5517L40.3552 29.5427C40.3642 29.5427 40.3642 29.5427 40.3642 29.5338C40.4 29.5158 40.4448 29.4979 40.4896 29.489C40.5075 29.489 40.5165 29.48 40.5254 29.48C40.5344 29.48 40.5523 29.471 40.5613 29.471C40.5702 29.471 40.5882 29.4621 40.6061 29.4621C40.624 29.4621 40.6329 29.4621 40.6509 29.4531C40.6598 29.4531 40.6598 29.4531 40.6777 29.4531C40.6509 29.489 40.6598 29.489 40.6598 29.489ZM37.7479 29.5338C37.7568 29.5338 37.7747 29.5338 37.7837 29.5338C37.8016 29.5338 37.8106 29.5338 37.8285 29.5338C37.8464 29.5338 37.8554 29.5338 37.8643 29.5427C37.8733 29.5427 37.8823 29.5517 37.8912 29.5607C37.9002 29.5696 37.9091 29.5875 37.9091 29.6055C37.9091 29.6234 37.9091 29.6503 37.9091 29.6682V29.9101V30.8778V31.1735C37.9091 31.1914 37.9091 31.2183 37.9091 31.2452C37.9091 31.2721 37.9091 31.29 37.9002 31.299C37.8912 31.3079 37.8823 31.3169 37.8733 31.3169C37.8643 31.3169 37.8554 31.3169 37.8375 31.3258H37.7927C37.7658 31.3258 37.7479 31.3258 37.7299 31.3258C37.712 31.3258 37.6941 31.3169 37.6851 31.299C37.6762 31.29 37.6762 31.2721 37.6762 31.2542C37.6762 31.2362 37.6762 31.2183 37.6762 31.2004V31.0033V29.9459V29.6771C37.6762 29.6592 37.6762 29.6413 37.6762 29.6144C37.6762 29.5875 37.6762 29.5696 37.6851 29.5607C37.6941 29.5517 37.7031 29.5427 37.721 29.5338H37.7299C37.7479 29.5338 37.7479 29.5338 37.7479 29.5338ZM34.3431 29.5248H35.3914H35.5796C35.5975 29.5248 35.6154 29.5248 35.6333 29.5248C35.6512 29.5248 35.6602 29.5248 35.6781 29.5338C35.6871 29.5427 35.696 29.5517 35.705 29.5696C35.705 29.5875 35.705 29.6055 35.705 29.6234V29.6503C35.705 29.6592 35.696 29.6771 35.696 29.6861C35.696 29.6951 35.6871 29.704 35.6781 29.713C35.6602 29.7219 35.6423 29.7219 35.6244 29.7219C35.5975 29.7219 35.5796 29.7219 35.5527 29.7219H35.266C35.248 29.7219 35.2301 29.7219 35.2122 29.7219C35.1943 29.7219 35.1764 29.7219 35.1674 29.7219C35.1495 29.7219 35.1405 29.7309 35.1316 29.7399C35.1226 29.7488 35.1136 29.7578 35.1047 29.7757C35.0957 29.7936 35.0957 29.8115 35.0957 29.8295C35.0957 29.8563 35.0957 29.8743 35.0957 29.8922V30.1341V30.9316V31.2004C35.0957 31.2273 35.0957 31.2452 35.0957 31.2721C35.0957 31.29 35.0868 31.3079 35.0688 31.3169C35.0599 31.3169 35.0509 31.3258 35.042 31.3258C35.033 31.3258 35.0151 31.3258 35.0061 31.3258C34.9882 31.3258 34.9613 31.3258 34.9344 31.3258C34.9076 31.3258 34.8896 31.3169 34.8896 31.3079C34.8807 31.299 34.8717 31.281 34.8717 31.2631C34.8717 31.2452 34.8717 31.2273 34.8717 31.2004V30.9764V30.152V29.9011C34.8717 29.8832 34.8717 29.8653 34.8717 29.8384C34.8717 29.8115 34.8717 29.7936 34.8628 29.7757C34.8538 29.7488 34.8359 29.7309 34.809 29.7309C34.7821 29.7309 34.7463 29.7309 34.7104 29.7309H34.4327C34.4148 29.7309 34.3879 29.7309 34.361 29.7309C34.3341 29.7309 34.3162 29.7309 34.2983 29.7219C34.2893 29.7219 34.2893 29.713 34.2804 29.713C34.2714 29.713 34.2714 29.704 34.2714 29.704C34.2625 29.6951 34.2625 29.6861 34.2625 29.6682C34.2625 29.6503 34.2625 29.6413 34.2625 29.6234C34.2625 29.6055 34.2625 29.5965 34.2714 29.5786C34.2714 29.5606 34.2804 29.5517 34.2804 29.5517C34.2804 29.5427 34.2893 29.5427 34.2983 29.5427C34.3073 29.5427 34.3073 29.5338 34.3162 29.5338H34.3252C34.3341 29.5248 34.3341 29.5248 34.3431 29.5248Z" fill="#2B2929"/>
<path d="M69.5468 29.5338C69.5558 29.5338 69.5737 29.5338 69.5827 29.5338C69.6006 29.5338 69.6095 29.5338 69.6275 29.5338C69.6454 29.5338 69.6543 29.5338 69.6633 29.5427C69.6723 29.5427 69.6812 29.5517 69.6902 29.5607C69.6991 29.5696 69.7081 29.5875 69.7081 29.6055C69.7081 29.6234 69.7081 29.6503 69.7081 29.6682V29.9101V30.8778V31.1735C69.7081 31.1914 69.7081 31.2183 69.7081 31.2452C69.7081 31.2721 69.7081 31.29 69.6991 31.299C69.6902 31.3079 69.6812 31.3169 69.6723 31.3169C69.6633 31.3169 69.6543 31.3169 69.6364 31.3258H69.5916C69.5647 31.3258 69.5468 31.3258 69.5289 31.3258C69.511 31.3258 69.4931 31.3169 69.4841 31.299C69.4751 31.29 69.4751 31.2721 69.4751 31.2542C69.4751 31.2362 69.4751 31.2183 69.4751 31.2004V31.0033V29.9459V29.6771C69.4751 29.6592 69.4751 29.6413 69.4751 29.6144C69.4751 29.5875 69.4751 29.5696 69.4841 29.5607C69.4931 29.5517 69.502 29.5427 69.5289 29.5338H69.5379H69.5468ZM66.0435 29.5338C66.0704 29.5338 66.0973 29.5338 66.1331 29.5338C66.1689 29.5338 66.1869 29.5338 66.2048 29.5517C66.2227 29.5607 66.2317 29.5786 66.2406 29.5965C66.2496 29.6144 66.2496 29.6413 66.2585 29.6592C66.2675 29.6951 66.2854 29.7309 66.2944 29.7578C66.3033 29.7936 66.3123 29.8295 66.3302 29.8563C66.3302 29.8653 66.3392 29.8743 66.3392 29.8832C66.3392 29.8922 66.3392 29.9011 66.3481 29.9101C66.3571 29.937 66.3661 29.9728 66.375 29.9997C66.384 30.0266 66.3929 30.0624 66.4019 30.0983C66.4288 30.17 66.4467 30.2327 66.4736 30.3044C66.5005 30.3671 66.5184 30.4388 66.5453 30.5104C66.5542 30.5463 66.5632 30.5821 66.5811 30.609C66.59 30.6449 66.599 30.6807 66.6169 30.7076C66.6169 30.7165 66.6259 30.7255 66.6259 30.7345C66.6259 30.7434 66.6349 30.7524 66.6349 30.7613C66.6528 30.8061 66.6707 30.8599 66.6886 30.9137C66.6976 30.9316 66.6976 30.9495 66.7065 30.9674C66.7155 30.9854 66.7155 31.0033 66.7334 31.0122C66.7334 31.0122 66.7424 31.0212 66.7513 31.0302C66.7692 31.0302 66.7872 31.0212 66.7872 31.0033C66.7961 30.9854 66.7961 30.9764 66.8051 30.9585C66.823 30.9137 66.8409 30.8689 66.8499 30.8241C66.8588 30.7793 66.8768 30.7345 66.8947 30.6897C66.9036 30.6628 66.9126 30.6359 66.9216 30.609C66.9305 30.5821 66.9395 30.5553 66.9484 30.5284C66.9574 30.5105 66.9664 30.4836 66.9664 30.4656C66.9753 30.4477 66.9753 30.4208 66.9843 30.4029C67.0112 30.3312 67.0291 30.2596 67.056 30.1879C67.0739 30.1162 67.1008 30.0445 67.1276 29.9728C67.1276 29.9639 67.1366 29.9639 67.1366 29.9549C67.1366 29.9459 67.1366 29.9459 67.1456 29.937C67.1545 29.9101 67.1635 29.8832 67.1724 29.8563C67.1814 29.8295 67.1904 29.8026 67.1993 29.7757C67.2083 29.7488 67.2172 29.7219 67.2262 29.6951C67.2352 29.6682 67.2441 29.6413 67.2531 29.6144C67.262 29.5965 67.262 29.5875 67.271 29.5696C67.28 29.5517 67.2889 29.5427 67.2979 29.5338C67.3068 29.5248 67.3248 29.5248 67.3427 29.5248C67.3606 29.5248 67.3785 29.5248 67.3964 29.5248H67.4502C67.4681 29.5248 67.4771 29.5338 67.486 29.5338C67.495 29.5338 67.504 29.5427 67.504 29.5607V29.5696V29.5786C67.504 29.5965 67.495 29.6144 67.486 29.6234C67.4771 29.6413 67.4771 29.6503 67.4681 29.6682C67.4592 29.6861 67.4592 29.6951 67.4502 29.713C67.4502 29.7309 67.4412 29.7399 67.4323 29.7578C67.4233 29.7847 67.4144 29.8026 67.4054 29.8295C67.3964 29.8563 67.3875 29.8832 67.3785 29.9011C67.3785 29.9101 67.3696 29.9101 67.3696 29.9191C67.3696 29.928 67.3696 29.928 67.3606 29.937C67.3427 29.9639 67.3337 29.9997 67.3248 30.0266C67.3158 30.0624 67.3068 30.0893 67.2889 30.1162C67.2889 30.1252 67.28 30.1252 67.28 30.1341C67.28 30.1431 67.28 30.1431 67.271 30.152C67.262 30.17 67.2531 30.1968 67.2441 30.2148C67.2352 30.2416 67.2262 30.2596 67.2172 30.2775C67.2172 30.2864 67.2083 30.2864 67.2083 30.2954C67.2083 30.3044 67.2083 30.3044 67.1993 30.3133C67.1724 30.376 67.1545 30.4388 67.1276 30.5104C67.1097 30.5732 67.0828 30.6449 67.056 30.7076L67.047 30.7345C67.038 30.7524 67.038 30.7703 67.0291 30.7882C67.0201 30.8061 67.0201 30.8241 67.0112 30.842C67.0022 30.8599 66.9932 30.8868 66.9843 30.9047C66.9753 30.9226 66.9664 30.9495 66.9574 30.9674C66.9574 30.9764 66.9484 30.9854 66.9484 30.9943C66.9484 31.0033 66.9395 31.0122 66.9395 31.0212C66.9305 31.0481 66.9216 31.075 66.9126 31.1018C66.9036 31.1287 66.8947 31.1556 66.8857 31.1735C66.8768 31.1914 66.8678 31.2183 66.8588 31.2452C66.8499 31.2721 66.8409 31.29 66.823 31.299C66.814 31.299 66.8051 31.3079 66.7961 31.3079C66.7872 31.3079 66.7782 31.3079 66.7692 31.3169H66.6976C66.6797 31.3169 66.6528 31.3169 66.6349 31.3169C66.608 31.3169 66.59 31.3169 66.5811 31.3079C66.5632 31.299 66.5542 31.29 66.5542 31.2721C66.5452 31.2542 66.5452 31.2362 66.5363 31.2183C66.5273 31.1914 66.5184 31.1646 66.5094 31.1377C66.5005 31.1108 66.4915 31.0839 66.4825 31.057C66.4825 31.0481 66.4736 31.0481 66.4736 31.0391C66.4736 31.0302 66.4736 31.0302 66.4646 31.0212C66.4467 30.9854 66.4377 30.9495 66.4288 30.9226C66.4198 30.8868 66.4019 30.8509 66.3929 30.8241C66.3929 30.8151 66.384 30.8061 66.384 30.7972C66.384 30.7882 66.384 30.7882 66.375 30.7793C66.3661 30.7524 66.3571 30.7345 66.3481 30.7076C66.3392 30.6807 66.3302 30.6628 66.3213 30.6359C66.3213 30.6269 66.3123 30.618 66.3123 30.618C66.3123 30.609 66.3123 30.6001 66.3033 30.6001C66.2944 30.5821 66.2854 30.5553 66.2765 30.5373C66.2675 30.5105 66.2585 30.4925 66.2496 30.4656C66.2406 30.4477 66.2317 30.4298 66.2317 30.4119C66.2227 30.394 66.2227 30.376 66.2137 30.3581C66.1958 30.3133 66.1779 30.2596 66.16 30.2148C66.1421 30.161 66.1241 30.1162 66.1062 30.0714C66.0973 30.0535 66.0973 30.0445 66.0883 30.0266C66.0883 30.0087 66.0793 29.9997 66.0704 29.9818C66.0614 29.9728 66.0614 29.9639 66.0614 29.9459C66.0614 29.937 66.0525 29.928 66.0525 29.9101C66.0345 29.8743 66.0256 29.8295 66.0077 29.7936C65.9987 29.7488 65.9808 29.713 65.9629 29.6771C65.9629 29.6682 65.9539 29.6503 65.9539 29.6413C65.9539 29.6323 65.9449 29.6144 65.9449 29.6055C65.936 29.5875 65.936 29.5786 65.9449 29.5607C65.9539 29.5517 65.9629 29.5427 65.9808 29.5338H65.9897C66.0435 29.5338 66.0435 29.5338 66.0435 29.5338ZM63.7766 30.2148C63.7856 30.1968 63.7946 30.1789 63.8035 30.161C63.8125 30.1431 63.8125 30.1162 63.8214 30.0983V30.0714C63.8304 30.0445 63.8304 30.0266 63.8214 29.9907C63.8214 29.9639 63.8125 29.937 63.8035 29.9191C63.7766 29.8384 63.7229 29.7757 63.6422 29.7488C63.6064 29.7309 63.5706 29.7309 63.5258 29.7219C63.481 29.7219 63.4362 29.7219 63.3914 29.7219H62.9792H62.9702C62.9702 29.7219 62.9613 29.7219 62.9523 29.7219C62.9344 29.7309 62.9165 29.7399 62.9165 29.7578C62.9075 29.7757 62.9075 29.7936 62.9075 29.8205C62.9075 29.8474 62.9075 29.8743 62.9075 29.8922V30.1789C62.9075 30.2058 62.9075 30.2327 62.9075 30.2596C62.9075 30.2864 62.9165 30.3044 62.9254 30.3223C62.9344 30.3312 62.9434 30.3402 62.9613 30.3402C62.9792 30.3402 62.9971 30.3402 63.015 30.3402H63.1674C63.2301 30.3402 63.2928 30.3402 63.3555 30.3402C63.4182 30.3402 63.472 30.3402 63.5258 30.3312C63.5795 30.3223 63.6243 30.3133 63.6691 30.2864C63.7139 30.2775 63.7498 30.2506 63.7766 30.2148ZM64.0813 31.2542C64.0902 31.2721 64.0902 31.29 64.0723 31.3079C64.0634 31.3169 64.0544 31.3169 64.0365 31.3169C64.0275 31.3169 64.0096 31.3169 64.0006 31.3169C63.9738 31.3169 63.9469 31.3169 63.92 31.3169C63.8931 31.3169 63.8752 31.3079 63.8573 31.299C63.8394 31.29 63.8394 31.281 63.8304 31.2631C63.8304 31.2452 63.8214 31.2273 63.8214 31.2094C63.8214 31.2004 63.8214 31.2004 63.8214 31.1914C63.8214 31.1825 63.8214 31.1825 63.8214 31.1735C63.8214 31.1646 63.8214 31.1556 63.8214 31.1466C63.8214 31.1377 63.8214 31.1287 63.8214 31.1287C63.8214 31.1198 63.8214 31.1108 63.8214 31.1018C63.8214 31.0929 63.8214 31.0839 63.8214 31.075L63.8125 30.9585C63.8125 30.9495 63.8035 30.9316 63.8035 30.9226C63.8035 30.9137 63.8035 30.8957 63.7946 30.8868C63.7856 30.8599 63.7766 30.8241 63.7766 30.7972C63.7766 30.7703 63.7677 30.7345 63.7498 30.7076C63.7139 30.6359 63.6691 30.5911 63.5885 30.5642C63.5706 30.5553 63.5437 30.5553 63.5168 30.5463C63.4899 30.5463 63.463 30.5463 63.4362 30.5463H62.9702C62.9613 30.5463 62.9523 30.5553 62.9434 30.5553C62.9344 30.5553 62.9254 30.5642 62.9165 30.5732C62.9075 30.5911 62.8986 30.618 62.8986 30.6538C62.8986 30.6897 62.8986 30.7255 62.8986 30.7524V31.1198C62.8986 31.1466 62.8986 31.1735 62.8986 31.2094C62.8986 31.2452 62.8986 31.2721 62.8896 31.29C62.8896 31.299 62.8806 31.3079 62.8717 31.3169C62.8627 31.3169 62.8627 31.3258 62.8538 31.3258C62.8448 31.3258 62.8448 31.3258 62.8358 31.3348C62.8269 31.3348 62.8179 31.3348 62.809 31.3348C62.8 31.3348 62.791 31.3348 62.7821 31.3348C62.7642 31.3348 62.7462 31.3348 62.7283 31.3348C62.7104 31.3348 62.6925 31.3258 62.6835 31.3169C62.6746 31.3079 62.6656 31.29 62.6656 31.2721C62.6656 31.2452 62.6656 31.2273 62.6656 31.2094V29.6771C62.6656 29.6592 62.6656 29.6413 62.6656 29.6234C62.6656 29.6055 62.6656 29.5875 62.6746 29.5786C62.6835 29.5696 62.6925 29.5607 62.7104 29.5517H62.7194H62.7283H63.4541C63.463 29.5517 63.481 29.5517 63.4899 29.5517C63.5078 29.5517 63.5168 29.5517 63.5258 29.5517H63.5526C63.5616 29.5517 63.5706 29.5517 63.5795 29.5517C63.5885 29.5517 63.5974 29.5517 63.6154 29.5517C63.6243 29.5517 63.6422 29.5607 63.6602 29.5607C63.6781 29.5607 63.687 29.5606 63.705 29.5696C63.7408 29.5786 63.7677 29.5875 63.7946 29.6055C63.8214 29.6144 63.8483 29.6323 63.8662 29.6503C63.911 29.6771 63.9379 29.713 63.9648 29.7578C63.9917 29.8026 64.0096 29.8474 64.0275 29.9011C64.0275 29.9101 64.0365 29.928 64.0365 29.9459C64.0365 29.9639 64.0365 29.9728 64.0454 29.9907V30.0176C64.0454 30.0266 64.0454 30.0356 64.0454 30.0445C64.0454 30.0535 64.0454 30.0624 64.0454 30.0714V30.0983C64.0454 30.1072 64.0365 30.1252 64.0365 30.1341C64.0365 30.1431 64.0365 30.161 64.0275 30.17C64.0186 30.1968 64.0096 30.2148 64.0006 30.2416C63.9917 30.2685 63.9827 30.2864 63.9738 30.3044C63.9648 30.3133 63.9648 30.3223 63.9558 30.3312C63.9469 30.3402 63.9469 30.3492 63.9379 30.3581C63.9379 30.3581 63.9379 30.3581 63.929 30.3581C63.929 30.3581 63.929 30.3581 63.92 30.3581L63.911 30.3671C63.911 30.376 63.9021 30.376 63.9021 30.376C63.8931 30.385 63.8752 30.394 63.8662 30.4029C63.8573 30.4119 63.8394 30.4208 63.8304 30.4298C63.8214 30.4388 63.8125 30.4388 63.8035 30.4477C63.7946 30.4567 63.7946 30.4656 63.7946 30.4746C63.7946 30.4836 63.7946 30.4925 63.8035 30.5015C63.8125 30.5105 63.8214 30.5105 63.8304 30.5194C63.8483 30.5284 63.8662 30.5463 63.8842 30.5553C63.9021 30.5642 63.911 30.5821 63.929 30.6001C63.9469 30.6269 63.9648 30.6538 63.9648 30.6807C63.9738 30.7076 63.9827 30.7434 63.9917 30.7793C63.9917 30.7882 63.9917 30.8061 64.0006 30.8151C64.0006 30.8241 64.0006 30.842 64.0096 30.8509C64.0096 30.8599 64.0096 30.8778 64.0096 30.8868C64.0096 30.8957 64.0096 30.9137 64.0096 30.9226V30.9495C64.0096 30.9585 64.0096 30.9764 64.0096 30.9853C64.0096 31.0033 64.0096 31.0122 64.0096 31.0212C64.0096 31.0302 64.0096 31.0302 64.0096 31.0391C64.0096 31.0481 64.0096 31.0481 64.0096 31.057C64.0096 31.075 64.0186 31.0929 64.0186 31.1108C64.0186 31.1287 64.0275 31.1466 64.0275 31.1556C64.0275 31.1646 64.0365 31.1735 64.0365 31.1825C64.0365 31.1914 64.0365 31.2004 64.0454 31.2094L64.0813 31.2542ZM59.4311 29.5248H60.2554H60.4704C60.4884 29.5248 60.5063 29.5248 60.5242 29.5248C60.5421 29.5248 60.56 29.5248 60.569 29.5338C60.578 29.5338 60.5779 29.5427 60.5779 29.5427C60.5779 29.5517 60.5869 29.5517 60.5869 29.5607C60.5869 29.5696 60.5959 29.5875 60.5959 29.6144C60.5959 29.6413 60.5959 29.6592 60.5869 29.6771C60.578 29.704 60.569 29.713 60.5421 29.713C60.5242 29.713 60.4973 29.713 60.4615 29.713H60.2106H59.7895C59.7626 29.713 59.7268 29.713 59.6909 29.713C59.6551 29.713 59.6282 29.713 59.6103 29.7309C59.5924 29.7399 59.5834 29.7578 59.5834 29.7847C59.5834 29.8115 59.5834 29.8384 59.5834 29.8653V30.1252C59.5834 30.1431 59.5834 30.161 59.5834 30.1879C59.5834 30.2148 59.5834 30.2327 59.5834 30.2506C59.5924 30.2685 59.6013 30.2864 59.6103 30.2864C59.6192 30.2864 59.6282 30.2954 59.6461 30.2954H59.673C59.682 30.2954 59.6909 30.2954 59.6909 30.2954C59.6999 30.2954 59.7088 30.2954 59.7178 30.2954H59.8074H60.3002C60.3181 30.2954 60.336 30.2954 60.354 30.2954C60.3719 30.2954 60.3898 30.2954 60.4077 30.2954C60.4256 30.2954 60.4436 30.2954 60.4615 30.3044C60.4794 30.3044 60.4884 30.3133 60.4973 30.3133C60.5063 30.3133 60.5063 30.3223 60.5063 30.3402C60.5063 30.3492 60.5152 30.3671 60.5152 30.376C60.5152 30.394 60.5152 30.4029 60.5152 30.4208C60.5152 30.4388 60.5152 30.4477 60.5063 30.4567C60.5063 30.4746 60.4973 30.4836 60.4794 30.4925C60.4794 30.4925 60.4704 30.5015 60.4615 30.5015C60.4525 30.5015 60.4525 30.5015 60.4435 30.5015H60.4256C60.4167 30.5015 60.4077 30.5015 60.3987 30.5015C60.3898 30.5015 60.3808 30.5015 60.3719 30.5015H60.2823H59.7536C59.7357 30.5015 59.7178 30.5015 59.6909 30.5015C59.673 30.5015 59.6551 30.5015 59.6372 30.5015C59.6192 30.5015 59.6013 30.5105 59.5924 30.5194C59.5834 30.5284 59.5744 30.5373 59.5655 30.5553C59.5655 30.5642 59.5565 30.5732 59.5655 30.5911C59.5655 30.609 59.5655 30.618 59.5655 30.6269V30.7703V31.0122C59.5655 31.0391 59.5655 31.057 59.5655 31.075C59.5655 31.0929 59.5744 31.1108 59.5834 31.1198C59.5924 31.1287 59.6103 31.1287 59.6192 31.1377C59.6372 31.1377 59.6551 31.1377 59.673 31.1377H59.8343H60.3002H60.4435C60.4525 31.1377 60.4704 31.1377 60.4794 31.1377C60.4884 31.1377 60.5063 31.1377 60.5152 31.1377C60.5332 31.1466 60.5511 31.1556 60.5511 31.1646C60.5511 31.1735 60.56 31.1825 60.56 31.1914C60.56 31.2004 60.56 31.2183 60.56 31.2273C60.56 31.2362 60.56 31.2542 60.56 31.2631C60.56 31.2721 60.56 31.281 60.5511 31.29C60.5421 31.3079 60.5332 31.3169 60.5242 31.3169C60.5152 31.3258 60.4973 31.3258 60.4883 31.3258C60.4704 31.3258 60.4525 31.3258 60.4435 31.3258H60.2644H59.5924H59.4132C59.3863 31.3258 59.3684 31.3258 59.3504 31.3258C59.3325 31.3258 59.3236 31.3169 59.3146 31.299C59.3056 31.29 59.3056 31.2721 59.3056 31.2631C59.3056 31.2452 59.3056 31.2362 59.3056 31.2183V31.0391V30.3671V29.8026V29.6503C59.3056 29.6323 59.3056 29.6234 59.3056 29.6055C59.3056 29.5875 59.3056 29.5786 59.3146 29.5696C59.3236 29.5606 59.3325 29.5517 59.3504 29.5427H59.3594C59.4221 29.5248 59.4311 29.5248 59.4311 29.5248ZM56.537 29.489C56.6356 29.489 56.7162 29.489 56.7879 29.5158C56.8596 29.5338 56.9313 29.5607 56.985 29.5965C56.994 29.6055 57.0029 29.6055 57.0119 29.6144C57.0209 29.6234 57.0298 29.6234 57.0388 29.6323L57.0477 29.6413L57.0567 29.6503L57.0657 29.6592C57.0746 29.6592 57.0746 29.6682 57.0746 29.6771C57.0836 29.6861 57.0836 29.6951 57.0925 29.704C57.1015 29.713 57.1105 29.7219 57.1105 29.7309C57.1194 29.7399 57.1194 29.7488 57.1284 29.7578C57.1284 29.7667 57.1373 29.7757 57.1463 29.7847C57.1642 29.8115 57.1732 29.8384 57.1821 29.8653C57.1911 29.8922 57.2001 29.928 57.209 29.9549C57.209 29.9728 57.218 29.9818 57.209 29.9997C57.209 30.0176 57.209 30.0266 57.2001 30.0356C57.1911 30.0445 57.1821 30.0535 57.1553 30.0535C57.1373 30.0535 57.1194 30.0535 57.1015 30.0535C57.0925 30.0535 57.0836 30.0535 57.0746 30.0535C57.0657 30.0535 57.0657 30.0535 57.0567 30.0535C57.0477 30.0535 57.0388 30.0535 57.0388 30.0535C57.0298 30.0535 57.0298 30.0535 57.0209 30.0445C57.0209 30.0445 57.0119 30.0445 57.0119 30.0356L57.0029 30.0266C56.994 30.0087 56.985 29.9907 56.985 29.9728C56.985 29.9549 56.9761 29.928 56.9671 29.9191C56.9402 29.8563 56.8954 29.8026 56.8506 29.7667C56.8148 29.7399 56.77 29.7219 56.7162 29.704C56.7073 29.704 56.6983 29.6951 56.6894 29.6951C56.6804 29.6951 56.6714 29.6951 56.6625 29.6861H56.6446C56.6356 29.6861 56.6177 29.6771 56.6087 29.6771C56.5997 29.6771 56.5818 29.6771 56.5729 29.6771C56.4833 29.6771 56.4116 29.6951 56.3578 29.7219C56.322 29.7309 56.2951 29.7578 56.2682 29.7757C56.2414 29.8026 56.2234 29.8295 56.2055 29.8563C56.1966 29.8653 56.1966 29.8832 56.1876 29.9011C56.1876 29.9191 56.1786 29.928 56.1786 29.9459C56.1786 29.9549 56.1697 29.9728 56.1786 29.9907C56.1786 30.0087 56.1786 30.0176 56.1876 30.0356C56.1966 30.0714 56.2145 30.1072 56.2324 30.1252C56.2503 30.1431 56.2772 30.161 56.3041 30.1789C56.3399 30.2058 56.3847 30.2237 56.4295 30.2327C56.4743 30.2416 56.5191 30.2596 56.5729 30.2685C56.5908 30.2685 56.5998 30.2775 56.6177 30.2775C56.6356 30.2775 56.6446 30.2864 56.6625 30.2864C56.6894 30.2954 56.7073 30.2954 56.7341 30.3044C56.761 30.3044 56.7879 30.3133 56.8058 30.3223C56.8148 30.3223 56.8148 30.3223 56.8237 30.3223C56.8327 30.3223 56.8327 30.3223 56.8417 30.3223C56.8596 30.3223 56.8685 30.3312 56.8865 30.3312C56.9044 30.3312 56.9133 30.3402 56.9313 30.3492C56.9671 30.3581 56.994 30.376 57.0298 30.385C57.0657 30.394 57.0925 30.4119 57.1194 30.4298C57.1553 30.4567 57.1911 30.4836 57.218 30.5104C57.2449 30.5373 57.2717 30.5821 57.2897 30.618C57.2986 30.6359 57.2986 30.6449 57.3076 30.6628C57.3076 30.6807 57.3165 30.6897 57.3165 30.7076C57.3165 30.7165 57.3255 30.7255 57.3255 30.7345C57.3255 30.7434 57.3255 30.7524 57.3345 30.7703V30.7972V30.8241C57.3345 30.833 57.3345 30.842 57.3345 30.842C57.3345 30.8509 57.3345 30.8599 57.3345 30.8599C57.3345 30.8689 57.3255 30.8868 57.3255 30.9047C57.3255 30.9226 57.3255 30.9316 57.3165 30.9495C57.3076 30.9764 57.2986 31.0033 57.2897 31.0212C57.2807 31.0481 57.2628 31.066 57.2538 31.0839C57.2269 31.1287 57.1911 31.1646 57.1463 31.1914C57.1015 31.2183 57.0567 31.2452 57.0029 31.2721C56.985 31.281 56.9671 31.281 56.9581 31.29C56.9402 31.299 56.9223 31.299 56.9044 31.3079C56.8865 31.3169 56.8685 31.3169 56.8506 31.3258C56.8327 31.3258 56.8148 31.3348 56.7879 31.3348C56.7789 31.3348 56.77 31.3348 56.761 31.3348C56.7521 31.3348 56.7431 31.3348 56.7341 31.3348C56.7252 31.3348 56.7162 31.3348 56.7073 31.3348C56.6983 31.3348 56.6893 31.3348 56.6804 31.3348C56.6714 31.3348 56.6625 31.3348 56.6446 31.3348C56.6266 31.3348 56.6177 31.3348 56.6087 31.3348H56.5818C56.5639 31.3348 56.546 31.3258 56.5281 31.3258C56.5102 31.3258 56.4922 31.3258 56.4833 31.3169C56.4743 31.3169 56.4654 31.3169 56.4654 31.3169C56.4564 31.3169 56.4474 31.3169 56.4385 31.3169C56.4206 31.3169 56.4026 31.3079 56.3847 31.3079C56.3668 31.3079 56.3489 31.299 56.3399 31.29C56.2593 31.2631 56.1876 31.2273 56.1338 31.1825C56.0801 31.1377 56.0263 31.0839 55.9905 31.0212C55.9726 31.0033 55.9636 30.9764 55.9546 30.9495C55.9457 30.9226 55.9367 30.9047 55.9278 30.8778C55.9278 30.8689 55.9188 30.8599 55.9188 30.8509C55.9188 30.842 55.9188 30.833 55.9098 30.8241C55.9098 30.8061 55.9009 30.7882 55.9009 30.7703C55.9009 30.7524 55.9009 30.7345 55.9098 30.7255C55.9188 30.7165 55.9278 30.7076 55.9546 30.7076C55.9726 30.7076 55.9905 30.7076 56.0084 30.7076C56.0174 30.7076 56.0263 30.7076 56.0263 30.7076C56.0353 30.7076 56.0442 30.7076 56.0442 30.7076C56.0532 30.7076 56.0622 30.7076 56.0622 30.7076C56.0711 30.7076 56.0711 30.7076 56.0801 30.7076C56.089 30.7165 56.098 30.7165 56.107 30.7255C56.1159 30.7345 56.1159 30.7434 56.1159 30.7524C56.1159 30.7613 56.1159 30.7703 56.1249 30.7793C56.1249 30.7882 56.1338 30.8061 56.1338 30.8151C56.1338 30.8241 56.1428 30.842 56.1428 30.8509C56.1697 30.9226 56.2145 30.9764 56.2682 31.0212C56.2951 31.0391 56.331 31.057 56.3578 31.075C56.3937 31.0839 56.4295 31.1018 56.4654 31.1108C56.4743 31.1108 56.4922 31.1198 56.5012 31.1198C56.5191 31.1198 56.5281 31.1198 56.537 31.1287H56.546C56.5549 31.1287 56.5549 31.1287 56.5639 31.1287C56.5729 31.1287 56.5818 31.1287 56.5908 31.1287C56.5997 31.1287 56.6087 31.1287 56.6177 31.1287C56.6266 31.1287 56.6356 31.1287 56.6446 31.1287C56.6535 31.1287 56.6714 31.1287 56.6804 31.1198H56.6983C56.7073 31.1198 56.7162 31.1198 56.7252 31.1198C56.7341 31.1198 56.7431 31.1198 56.7521 31.1198C56.761 31.1198 56.761 31.1198 56.77 31.1198C56.77 31.1198 56.7789 31.1198 56.7879 31.1198C56.8058 31.1198 56.8148 31.1108 56.8327 31.1108C56.8506 31.1108 56.8596 31.1018 56.8775 31.1018C56.9223 31.0839 56.9581 31.066 56.994 31.0391C57.0298 31.0122 57.0567 30.9853 57.0746 30.9405C57.0836 30.9316 57.0836 30.9137 57.0836 30.9047C57.0836 30.8868 57.0925 30.8778 57.0925 30.8599C57.0925 30.8509 57.1015 30.833 57.1015 30.8151C57.1015 30.7972 57.1015 30.7793 57.0925 30.7703C57.0925 30.7613 57.0836 30.7524 57.0836 30.7524C57.0836 30.7434 57.0836 30.7434 57.0746 30.7345C57.0657 30.7076 57.0477 30.6807 57.0388 30.6628C57.0209 30.6449 57.0029 30.6269 56.9761 30.609C56.9402 30.5821 56.9044 30.5642 56.8596 30.5463C56.8148 30.5284 56.77 30.5194 56.7252 30.5104C56.6804 30.5015 56.6266 30.4925 56.5818 30.4746C56.537 30.4567 56.4833 30.4567 56.4385 30.4388C56.4116 30.4298 56.3847 30.4208 56.3578 30.4208C56.331 30.4119 56.3041 30.4029 56.2862 30.394H56.2772C56.2772 30.394 56.2772 30.394 56.2682 30.394C56.2503 30.385 56.2324 30.385 56.2145 30.376C56.1966 30.3671 56.1786 30.3581 56.1697 30.3492C56.1338 30.3223 56.098 30.3044 56.0622 30.2685C56.0263 30.2416 56.0084 30.2058 55.9905 30.161C55.9815 30.1431 55.9726 30.1252 55.9726 30.1162C55.9726 30.0983 55.9636 30.0804 55.9636 30.0624C55.9636 30.0535 55.9636 30.0535 55.9636 30.0445C55.9636 30.0356 55.9636 30.0355 55.9636 30.0266C55.9546 30.0087 55.9546 29.9818 55.9636 29.9459C55.9636 29.9191 55.9726 29.8922 55.9726 29.8743C55.9815 29.8563 55.9815 29.8384 55.9905 29.8205C55.9905 29.8026 55.9994 29.7847 56.0084 29.7757C56.0353 29.7219 56.0622 29.6861 56.098 29.6503C56.1338 29.6144 56.1786 29.5875 56.2234 29.5517L56.2324 29.5427C56.2414 29.5427 56.2414 29.5427 56.2414 29.5338C56.2772 29.5158 56.322 29.4979 56.3668 29.489C56.3847 29.489 56.3937 29.48 56.4026 29.48C56.4116 29.48 56.4295 29.471 56.4385 29.471C56.4474 29.471 56.4654 29.4621 56.4833 29.4621C56.5012 29.4621 56.5102 29.4621 56.5281 29.4531C56.537 29.4531 56.537 29.4531 56.555 29.4531C56.5281 29.489 56.537 29.489 56.537 29.489Z" fill="#2B2929"/>
<path d="M72.6109 29.489C72.7722 29.489 72.9156 29.5158 73.0231 29.5696C73.1306 29.6234 73.2202 29.704 73.2829 29.8026C73.3008 29.8295 73.3098 29.8563 73.3277 29.8832C73.3367 29.9101 73.3456 29.937 73.3636 29.9728C73.3636 29.9818 73.3725 29.9907 73.3725 30.0087C73.3725 30.0266 73.3725 30.0355 73.3725 30.0445C73.3725 30.0535 73.3636 30.0624 73.3546 30.0624C73.3456 30.0624 73.3367 30.0714 73.3277 30.0714H73.2919C73.2829 30.0714 73.2829 30.0714 73.274 30.0714C73.265 30.0714 73.256 30.0714 73.256 30.0714C73.2292 30.0714 73.2112 30.0714 73.1933 30.0714C73.1754 30.0714 73.1575 30.0624 73.1485 30.0445C73.1396 30.0266 73.1306 30.0087 73.1216 29.9907C73.1127 29.9728 73.1037 29.9459 73.0948 29.928C73.0768 29.8922 73.05 29.8563 73.0231 29.8295C72.9962 29.8026 72.9604 29.7757 72.9245 29.7578C72.9066 29.7488 72.8797 29.7309 72.8618 29.7309C72.8349 29.7219 72.817 29.7219 72.7901 29.713C72.7722 29.704 72.7543 29.704 72.7274 29.704C72.7005 29.704 72.6826 29.704 72.6557 29.704C72.6289 29.704 72.602 29.704 72.584 29.704C72.5572 29.704 72.5393 29.713 72.5213 29.713C72.5034 29.713 72.4855 29.7219 72.4765 29.7219C72.4586 29.7219 72.4497 29.7309 72.4317 29.7399C72.2884 29.8026 72.1898 29.9011 72.1271 30.0445C72.1181 30.0714 72.1092 30.0893 72.1002 30.1162C72.0913 30.1431 72.0823 30.17 72.0733 30.1968C72.0733 30.2058 72.0644 30.2148 72.0644 30.2327C72.0644 30.2416 72.0644 30.2506 72.0554 30.2685C72.0554 30.2775 72.0554 30.2775 72.0554 30.2864C72.0554 30.2954 72.0554 30.2954 72.0554 30.3044C72.0554 30.3223 72.0465 30.3402 72.0465 30.3581C72.0465 30.376 72.0465 30.394 72.0465 30.4208C72.0465 30.4298 72.0465 30.4477 72.0465 30.4567C72.0465 30.4656 72.0465 30.4836 72.0465 30.4925V30.5194C72.0465 30.5284 72.0554 30.5463 72.0465 30.5552C72.0465 30.5642 72.0465 30.5821 72.0465 30.5911C72.0465 30.6001 72.0554 30.609 72.0465 30.618C72.0465 30.6269 72.0465 30.6359 72.0465 30.6449C72.0554 30.6628 72.0554 30.6897 72.0644 30.7076C72.0644 30.7255 72.0733 30.7524 72.0823 30.7703C72.1092 30.8509 72.145 30.9226 72.1898 30.9853C72.2346 31.0481 72.2973 31.0929 72.369 31.1287C72.3959 31.1377 72.4138 31.1466 72.4407 31.1556C72.4676 31.1646 72.4945 31.1735 72.5213 31.1825C72.5303 31.1825 72.5482 31.1914 72.5572 31.1825C72.5661 31.1825 72.5751 31.1825 72.593 31.1825C72.602 31.1825 72.6199 31.1825 72.6378 31.1825C72.6557 31.1825 72.6737 31.1825 72.6826 31.1825H72.7005C72.7095 31.1825 72.7184 31.1825 72.7184 31.1825C72.7274 31.1825 72.7364 31.1825 72.7364 31.1825C72.7543 31.1825 72.7722 31.1735 72.7812 31.1735C72.7991 31.1735 72.817 31.1646 72.826 31.1556C72.9604 31.1018 73.05 31.0122 73.1037 30.8957C73.1127 30.8689 73.1306 30.833 73.1396 30.7882C73.1396 30.7703 73.1485 30.7613 73.1485 30.7434C73.1485 30.7255 73.1575 30.7165 73.1664 30.6986C73.1754 30.6897 73.1844 30.6807 73.2112 30.6717C73.2292 30.6717 73.2471 30.6717 73.274 30.6717C73.2829 30.6717 73.2919 30.6717 73.3008 30.6717C73.3098 30.6717 73.3188 30.6717 73.3277 30.6717H73.3456C73.3546 30.6717 73.3546 30.6717 73.3636 30.6717C73.3725 30.6717 73.3725 30.6717 73.3815 30.6807C73.3904 30.6897 73.3994 30.6986 73.3994 30.7165C73.3994 30.7345 73.3994 30.7524 73.3904 30.7703C73.3815 30.8061 73.3725 30.842 73.3636 30.8778C73.3546 30.9137 73.3456 30.9495 73.3277 30.9764C73.3098 30.9943 73.3008 31.0212 73.2919 31.0391C73.2829 31.057 73.265 31.075 73.256 31.1018C73.2292 31.1466 73.1844 31.1825 73.1485 31.2183C73.1037 31.2542 73.0589 31.281 73.0052 31.3079C72.9872 31.3169 72.9693 31.3258 72.9514 31.3258C72.9335 31.3348 72.9156 31.3348 72.8976 31.3438C72.8797 31.3527 72.8618 31.3527 72.8439 31.3617C72.826 31.3617 72.808 31.3706 72.7812 31.3706C72.7722 31.3706 72.7633 31.3796 72.7543 31.3706C72.7453 31.3706 72.7364 31.3706 72.7364 31.3706C72.7274 31.3706 72.7185 31.3706 72.7095 31.3706C72.7005 31.3706 72.6916 31.3706 72.6736 31.3706C72.6647 31.3706 72.6557 31.3706 72.6378 31.3706C72.6199 31.3706 72.6109 31.3706 72.602 31.3706C72.593 31.3706 72.5841 31.3706 72.5751 31.3706C72.5661 31.3706 72.5572 31.3706 72.5482 31.3706H72.5213C72.5124 31.3706 72.4945 31.3617 72.4855 31.3617C72.4765 31.3617 72.4586 31.3617 72.4497 31.3527C72.4317 31.3527 72.4228 31.3438 72.4049 31.3438C72.3869 31.3438 72.378 31.3348 72.3601 31.3348C72.3242 31.3258 72.2973 31.3079 72.2615 31.299C72.154 31.2542 72.0733 31.1914 72.0017 31.1018C71.9389 31.0212 71.8852 30.9226 71.8493 30.8061C71.8404 30.7882 71.8404 30.7613 71.8314 30.7434C71.8314 30.7255 71.8225 30.6986 71.8135 30.6717C71.8135 30.6628 71.8045 30.6538 71.8135 30.6449C71.8135 30.6359 71.8135 30.6269 71.8135 30.618C71.8135 30.6001 71.8045 30.5911 71.8045 30.5732C71.8045 30.5553 71.8045 30.5373 71.7956 30.5284V30.4836C71.7956 30.4746 71.7866 30.4567 71.7866 30.4388C71.7866 30.4208 71.7866 30.4029 71.7956 30.394C71.7956 30.385 71.7956 30.385 71.7956 30.376C71.7956 30.3671 71.7956 30.3671 71.7956 30.3581V30.3312C71.7956 30.3133 71.7956 30.3044 71.7956 30.2864C71.7956 30.2685 71.7956 30.2596 71.8045 30.2416C71.8045 30.2327 71.8135 30.2237 71.8135 30.2058C71.8135 30.1968 71.8135 30.1879 71.8225 30.17C71.8314 30.1431 71.8404 30.1162 71.8404 30.0893C71.8493 30.0624 71.8493 30.0355 71.8673 30.0176C71.8762 29.9997 71.8852 29.9728 71.8941 29.9549C71.9031 29.928 71.9121 29.9101 71.921 29.8922C71.9479 29.8474 71.9748 29.8115 71.9927 29.7757C72.0017 29.7667 72.0017 29.7578 72.0106 29.7578C72.0196 29.7488 72.0285 29.7488 72.0285 29.7399C72.0375 29.7309 72.0465 29.713 72.0644 29.704C72.0733 29.6951 72.0823 29.6861 72.1002 29.6771C72.1092 29.6682 72.1181 29.6592 72.1271 29.6503C72.1361 29.6413 72.145 29.6323 72.1629 29.6234C72.1898 29.6055 72.2167 29.5875 72.2436 29.5786C72.2705 29.5696 72.2973 29.5517 72.3332 29.5427C72.3511 29.5338 72.369 29.5248 72.3959 29.5248C72.4138 29.5248 72.4407 29.5158 72.4586 29.5069C72.4676 29.5069 72.4855 29.5069 72.4945 29.4979C72.5034 29.4979 72.5124 29.4979 72.5213 29.489C72.5303 29.489 72.5482 29.489 72.5572 29.489C72.5661 29.489 72.5841 29.489 72.593 29.489H72.602H72.6109ZM79.3488 29.489C79.4473 29.489 79.528 29.489 79.5997 29.5158C79.6713 29.5338 79.743 29.5606 79.7968 29.5965C79.8057 29.6055 79.8147 29.6055 79.8237 29.6144C79.8326 29.6234 79.8416 29.6234 79.8505 29.6323L79.8595 29.6413L79.8685 29.6503L79.8774 29.6592C79.8864 29.6592 79.8864 29.6682 79.8864 29.6771C79.8953 29.6861 79.8953 29.6951 79.9043 29.704C79.9133 29.713 79.9133 29.7219 79.9222 29.7309C79.9312 29.7399 79.9312 29.7488 79.9401 29.7578C79.9401 29.7667 79.9491 29.7757 79.9581 29.7847C79.976 29.8115 79.9849 29.8384 79.9939 29.8653C80.0029 29.8922 80.0118 29.928 80.0208 29.9549C80.0208 29.9728 80.0297 29.9818 80.0208 29.9997C80.0208 30.0176 80.0208 30.0266 80.0118 30.0355C80.0029 30.0445 79.9939 30.0535 79.976 30.0535C79.9581 30.0535 79.9401 30.0535 79.9222 30.0535C79.9133 30.0535 79.9043 30.0535 79.8953 30.0535C79.8864 30.0535 79.8774 30.0535 79.8774 30.0535C79.8685 30.0535 79.8595 30.0535 79.8595 30.0535C79.8505 30.0535 79.8505 30.0535 79.8416 30.0445C79.8416 30.0445 79.8326 30.0445 79.8326 30.0355L79.8237 30.0266C79.8147 30.0087 79.8057 29.9907 79.8057 29.9728C79.8057 29.9549 79.7968 29.928 79.7878 29.9191C79.7609 29.8563 79.7161 29.8026 79.6713 29.7667C79.6355 29.7399 79.5907 29.7219 79.5369 29.704C79.528 29.704 79.519 29.6951 79.5101 29.6951C79.5011 29.6951 79.4921 29.6951 79.4832 29.6861H79.4653C79.4563 29.6861 79.4384 29.6771 79.4294 29.6771C79.4205 29.6771 79.4025 29.6771 79.3936 29.6771C79.304 29.6771 79.2323 29.6951 79.1785 29.7219C79.1427 29.7309 79.1158 29.7578 79.0889 29.7757C79.0621 29.8026 79.0441 29.8295 79.0262 29.8563C79.0173 29.8653 79.0173 29.8832 79.0083 29.9011C79.0083 29.9191 78.9993 29.928 78.9993 29.9459C78.9993 29.9549 78.9904 29.9728 78.9993 29.9907C78.9993 30.0087 78.9993 30.0176 79.0083 30.0355C79.0173 30.0714 79.0352 30.1072 79.0531 30.1252C79.071 30.1431 79.0979 30.161 79.1248 30.1789C79.1606 30.2058 79.2054 30.2237 79.2502 30.2327C79.295 30.2416 79.3398 30.2596 79.3936 30.2685C79.4115 30.2685 79.4205 30.2775 79.4384 30.2775C79.4563 30.2775 79.4653 30.2864 79.4832 30.2864C79.5101 30.2954 79.528 30.2954 79.5549 30.3044C79.5817 30.3044 79.6086 30.3133 79.6265 30.3223C79.6355 30.3223 79.6355 30.3223 79.6445 30.3223C79.6534 30.3223 79.6534 30.3223 79.6624 30.3223C79.6803 30.3223 79.6893 30.3312 79.7072 30.3312C79.7251 30.3312 79.7341 30.3402 79.752 30.3492C79.7878 30.3581 79.8147 30.376 79.8505 30.385C79.8864 30.394 79.9133 30.4119 79.9401 30.4298C79.976 30.4567 80.0118 30.4836 80.0387 30.5104C80.0656 30.5373 80.0925 30.5821 80.1104 30.618C80.1193 30.6359 80.1193 30.6449 80.1283 30.6628C80.1283 30.6807 80.1373 30.6897 80.1373 30.7076C80.1373 30.7165 80.1462 30.7255 80.1462 30.7345C80.1462 30.7434 80.1462 30.7524 80.1552 30.7703V30.7972V30.8241C80.1552 30.833 80.1552 30.842 80.1552 30.842C80.1552 30.8509 80.1552 30.8599 80.1552 30.8599C80.1552 30.8689 80.1462 30.8868 80.1462 30.9047C80.1462 30.9226 80.1462 30.9316 80.1373 30.9495C80.1283 30.9764 80.1193 31.0033 80.1104 31.0212C80.1014 31.0481 80.0835 31.066 80.0745 31.0839C80.0477 31.1287 80.0118 31.1646 79.967 31.1914C79.9222 31.2183 79.8774 31.2452 79.8237 31.2721C79.8057 31.281 79.7878 31.281 79.7789 31.29C79.7609 31.299 79.743 31.299 79.7251 31.3079C79.7072 31.3169 79.6893 31.3169 79.6713 31.3258C79.6534 31.3258 79.6355 31.3348 79.6086 31.3348C79.5997 31.3348 79.5907 31.3348 79.5817 31.3348C79.5728 31.3348 79.5638 31.3348 79.5549 31.3348C79.5459 31.3348 79.5369 31.3348 79.528 31.3348C79.519 31.3348 79.5101 31.3348 79.5011 31.3348C79.4921 31.3348 79.4832 31.3348 79.4653 31.3348C79.4473 31.3348 79.4384 31.3348 79.4294 31.3348H79.4025C79.3846 31.3348 79.3667 31.3258 79.3488 31.3258C79.3309 31.3258 79.3129 31.3258 79.304 31.3169C79.295 31.3169 79.2861 31.3169 79.2861 31.3169C79.2771 31.3169 79.2681 31.3169 79.2592 31.3169C79.2413 31.3169 79.2233 31.3079 79.2054 31.3079C79.1875 31.3079 79.1696 31.299 79.1606 31.29C79.08 31.2631 79.0083 31.2273 78.9545 31.1825C78.9008 31.1377 78.847 31.0839 78.8112 31.0212C78.8022 31.0033 78.7843 30.9764 78.7754 30.9495C78.7664 30.9226 78.7574 30.9047 78.7485 30.8778C78.7485 30.8689 78.7395 30.8599 78.7395 30.8509C78.7395 30.842 78.7395 30.833 78.7306 30.8241C78.7306 30.8061 78.7216 30.7882 78.7216 30.7703C78.7216 30.7524 78.7216 30.7345 78.7306 30.7255C78.7395 30.7165 78.7485 30.7076 78.7754 30.7076C78.7933 30.7076 78.8112 30.7076 78.8291 30.7076C78.8381 30.7076 78.847 30.7076 78.847 30.7076C78.856 30.7076 78.8649 30.7076 78.8649 30.7076C78.8739 30.7076 78.8829 30.7076 78.8829 30.7076C78.8918 30.7076 78.8918 30.7076 78.9008 30.7076C78.9097 30.7165 78.9187 30.7165 78.9277 30.7255C78.9366 30.7345 78.9366 30.7434 78.9366 30.7524C78.9366 30.7613 78.9366 30.7703 78.9456 30.7793C78.9456 30.7882 78.9545 30.8061 78.9545 30.8151C78.9545 30.8241 78.9635 30.842 78.9635 30.8509C78.9904 30.9226 79.0352 30.9764 79.0889 31.0212C79.1158 31.0391 79.1517 31.057 79.1785 31.0749C79.2144 31.0839 79.2502 31.1018 79.2861 31.1108C79.304 31.1108 79.3129 31.1198 79.3219 31.1198C79.3398 31.1198 79.3488 31.1198 79.3577 31.1287H79.3667C79.3757 31.1287 79.3757 31.1287 79.3846 31.1287C79.3936 31.1287 79.4025 31.1287 79.4115 31.1287C79.4205 31.1287 79.4294 31.1287 79.4384 31.1287C79.4473 31.1287 79.4563 31.1287 79.4653 31.1287C79.4742 31.1287 79.4921 31.1287 79.5011 31.1198H79.519C79.528 31.1198 79.5369 31.1198 79.5459 31.1198C79.5549 31.1198 79.5638 31.1198 79.5728 31.1198C79.5817 31.1198 79.5817 31.1198 79.5907 31.1198C79.5907 31.1198 79.5997 31.1198 79.6086 31.1198C79.6265 31.1198 79.6355 31.1108 79.6534 31.1108C79.6713 31.1108 79.6803 31.1018 79.6982 31.1018C79.743 31.0839 79.7789 31.066 79.8147 31.0391C79.8505 31.0122 79.8774 30.9853 79.8953 30.9405C79.9043 30.9316 79.9043 30.9137 79.9043 30.9047C79.9043 30.8868 79.9133 30.8778 79.9133 30.8599C79.9133 30.8509 79.9222 30.833 79.9222 30.8151C79.9222 30.7972 79.9222 30.7793 79.9133 30.7703C79.9133 30.7613 79.9043 30.7524 79.9043 30.7524C79.9043 30.7434 79.9043 30.7434 79.8953 30.7345C79.8864 30.7076 79.8685 30.6807 79.8595 30.6628C79.8416 30.6449 79.8237 30.6269 79.7968 30.609C79.7609 30.5821 79.7251 30.5642 79.6803 30.5463C79.6355 30.5284 79.5907 30.5194 79.5459 30.5104C79.5011 30.5015 79.4473 30.4925 79.4025 30.4746C79.3488 30.4656 79.304 30.4567 79.2592 30.4388C79.2323 30.4298 79.2054 30.4208 79.1785 30.4208C79.1517 30.4119 79.1248 30.4029 79.1069 30.394H79.0979C79.0979 30.394 79.0979 30.394 79.0889 30.394C79.071 30.385 79.0531 30.385 79.0352 30.376C79.0173 30.3671 78.9993 30.3581 78.9904 30.3492C78.9545 30.3223 78.9187 30.3044 78.8829 30.2685C78.847 30.2416 78.8291 30.2058 78.8112 30.161C78.8022 30.1431 78.7933 30.1252 78.7933 30.1162C78.7933 30.0983 78.7843 30.0803 78.7843 30.0624C78.7843 30.0535 78.7843 30.0535 78.7843 30.0445C78.7843 30.0355 78.7843 30.0355 78.7843 30.0266C78.7753 30.0087 78.7753 29.9818 78.7843 29.9459C78.7843 29.9191 78.7933 29.8922 78.7933 29.8743C78.8022 29.8563 78.8022 29.8384 78.8112 29.8205C78.8112 29.8026 78.8201 29.7847 78.8291 29.7757C78.856 29.7219 78.8829 29.6861 78.9187 29.6503C78.9545 29.6144 78.9993 29.5875 79.0441 29.5517L79.0531 29.5427C79.0621 29.5427 79.0621 29.5427 79.0621 29.5338C79.0979 29.5158 79.1427 29.4979 79.1875 29.489C79.1965 29.489 79.2144 29.48 79.2233 29.48C79.2323 29.48 79.2502 29.471 79.2592 29.471C79.2681 29.471 79.2861 29.4621 79.304 29.4621C79.3219 29.4621 79.3309 29.4621 79.3488 29.4531C79.3577 29.4531 79.3577 29.4531 79.3757 29.4531C79.3398 29.489 79.3398 29.489 79.3488 29.489ZM75.5319 29.5248H76.3562H76.5712C76.5891 29.5248 76.6071 29.5248 76.625 29.5248C76.6429 29.5248 76.6608 29.5248 76.6698 29.5338C76.6787 29.5338 76.6787 29.5427 76.6787 29.5427C76.6787 29.5517 76.6877 29.5517 76.6877 29.5607C76.6877 29.5696 76.6967 29.5875 76.6967 29.6144C76.6967 29.6413 76.6967 29.6592 76.6877 29.6771C76.6787 29.704 76.6698 29.713 76.6429 29.713C76.625 29.713 76.5981 29.713 76.5623 29.713H76.3114H75.8903C75.8634 29.713 75.8365 29.713 75.7917 29.713C75.7559 29.713 75.729 29.713 75.7111 29.7309C75.6931 29.7399 75.6842 29.7578 75.6842 29.7847C75.6842 29.8115 75.6842 29.8384 75.6842 29.8653V30.1252C75.6842 30.1431 75.6842 30.161 75.6842 30.1879C75.6842 30.2148 75.6842 30.2327 75.6842 30.2506C75.6931 30.2685 75.7021 30.2864 75.7111 30.2864C75.72 30.2864 75.729 30.2954 75.7469 30.2954H75.7738C75.7827 30.2954 75.7917 30.2954 75.7917 30.2954C75.8007 30.2954 75.8096 30.2954 75.8186 30.2954H75.9082H76.401C76.4189 30.2954 76.4368 30.2954 76.4547 30.2954C76.4727 30.2954 76.4906 30.2954 76.5085 30.2954C76.5264 30.2954 76.5443 30.2954 76.5623 30.3044C76.5802 30.3044 76.5891 30.3133 76.5981 30.3133C76.6071 30.3133 76.6071 30.3223 76.6071 30.3402C76.6071 30.3492 76.616 30.3671 76.616 30.376C76.616 30.394 76.616 30.4029 76.616 30.4208C76.616 30.4388 76.616 30.4477 76.6071 30.4567C76.6071 30.4746 76.5981 30.4836 76.5802 30.4925C76.5802 30.4925 76.5712 30.5015 76.5623 30.5015C76.5533 30.5015 76.5533 30.5015 76.5443 30.5015H76.5264C76.5174 30.5015 76.5085 30.5015 76.4995 30.5015C76.4906 30.5015 76.4816 30.5015 76.4727 30.5015H76.3831H75.8903C75.8723 30.5015 75.8544 30.5015 75.8275 30.5015C75.8096 30.5015 75.7917 30.5015 75.7738 30.5015C75.7559 30.5015 75.7379 30.5104 75.729 30.5194C75.72 30.5284 75.7111 30.5373 75.7021 30.5552C75.7021 30.5642 75.6931 30.5732 75.7021 30.5911C75.7021 30.609 75.7021 30.618 75.7021 30.6269V30.7703V31.0122C75.7021 31.0391 75.7021 31.057 75.7021 31.0749C75.7021 31.0929 75.7111 31.1108 75.72 31.1198C75.729 31.1287 75.7469 31.1287 75.7559 31.1377C75.7738 31.1377 75.7917 31.1377 75.8096 31.1377H75.9709H76.4368H76.5802C76.5891 31.1377 76.607 31.1377 76.616 31.1377C76.6339 31.1377 76.6429 31.1377 76.6519 31.1377C76.6698 31.1466 76.6877 31.1556 76.6967 31.1646C76.6967 31.1735 76.7056 31.1825 76.7056 31.1914C76.7056 31.2004 76.7056 31.2183 76.7056 31.2273C76.7056 31.2362 76.7056 31.2542 76.7056 31.2631C76.7056 31.2721 76.7056 31.281 76.6967 31.29C76.6877 31.3079 76.6787 31.3169 76.6698 31.3169C76.6608 31.3258 76.6429 31.3258 76.6339 31.3258C76.616 31.3258 76.5981 31.3258 76.5891 31.3258H76.4099H75.7379H75.5587C75.5319 31.3258 75.5139 31.3258 75.496 31.3258C75.4781 31.3258 75.4691 31.3169 75.4602 31.299C75.4512 31.29 75.4512 31.2721 75.4512 31.2631C75.4512 31.2452 75.4512 31.2362 75.4512 31.2183V31.0391V30.3671V29.8026V29.6503C75.4512 29.6323 75.4512 29.6234 75.4512 29.6055C75.4512 29.5875 75.4512 29.5786 75.4602 29.5696C75.4691 29.5606 75.4781 29.5517 75.496 29.5427H75.505C75.5319 29.5248 75.5319 29.5248 75.5319 29.5248Z" fill="#2B2929"/>
</svg>
